<svg width="35" height="35" viewBox="0 0 35 35" fill="none" xmlns="http://www.w3.org/2000/svg">
<path d="M3.40395 13.1823L4.86229 12.3268V15.5546H30.1401V12.3559L31.579 13.1823C31.8011 13.2986 32.0597 13.3245 32.3005 13.2546C32.5413 13.1847 32.7458 13.0245 32.8713 12.8074C32.9968 12.5903 33.0336 12.3331 32.9739 12.0896C32.9142 11.846 32.7628 11.6349 32.5512 11.5004L17.5012 2.83789L2.43173 11.5004C2.31554 11.5612 2.21285 11.6448 2.12984 11.7463C2.04682 11.8478 1.98519 11.965 1.94866 12.091C1.91212 12.2169 1.90144 12.3489 1.91725 12.4791C1.93306 12.6093 1.97504 12.7349 2.04066 12.8484C2.10628 12.9619 2.19418 13.061 2.29909 13.1397C2.40399 13.2183 2.52372 13.275 2.65108 13.3062C2.77843 13.3374 2.91079 13.3425 3.04017 13.3212C3.16955 13.2999 3.2933 13.2527 3.40395 13.1823ZM17.3553 6.9115C17.4736 6.84324 17.6077 6.8073 17.7442 6.8073C17.8808 6.8073 18.0149 6.84324 18.1331 6.9115L24.6665 10.6934H21.5359L17.7442 8.51567L13.9526 10.6934H10.8317L17.3553 6.9115Z" fill="#617AFF"/>
<path d="M31.9384 26.2484H31.112V25.422C31.112 25.1255 30.9942 24.8411 30.7845 24.6314C30.5748 24.4217 30.2904 24.304 29.9939 24.304H27.2231V17.1387H23.3342V24.304H19.4453V17.1387H15.5564V24.304H11.6675V17.1387H7.77865V24.304H5.00781C4.71129 24.304 4.4269 24.4217 4.21723 24.6314C4.00755 24.8411 3.88976 25.1255 3.88976 25.422V26.2484H3.06337C2.76684 26.2484 2.48246 26.3662 2.27278 26.5759C2.06311 26.7855 1.94531 27.0699 1.94531 27.3665V30.1373H33.0564V27.3665C33.0564 27.0699 32.9386 26.7855 32.729 26.5759C32.5193 26.3662 32.2349 26.2484 31.9384 26.2484Z" fill="url(#paint0_linear_1002_7959)"/>
<defs>
<linearGradient id="paint0_linear_1002_7959" x1="17.5009" y1="17.1387" x2="17.5009" y2="30.1373" gradientUnits="userSpaceOnUse">
<stop offset="0.806269" stop-color="#617AFF"/>
<stop offset="0.806369" stop-color="#FFB819"/>
</linearGradient>
</defs>
</svg>
