<svg width="21" height="20" viewBox="0 0 21 20" fill="none" xmlns="http://www.w3.org/2000/svg">
<path d="M8.14844 8.33333C8.14844 7.61504 8.43378 6.92616 8.94169 6.41825C9.4496 5.91034 10.1385 5.625 10.8568 5.625C11.5751 5.625 12.2639 5.91034 12.7719 6.41825C13.2798 6.92616 13.5651 7.61504 13.5651 8.33333C13.5651 9.05163 13.2798 9.7405 12.7719 10.2484C12.2639 10.7563 11.5751 11.0417 10.8568 11.0417C10.1385 11.0417 9.4496 10.7563 8.94169 10.2484C8.43378 9.7405 8.14844 9.05163 8.14844 8.33333Z" fill="#BBBCC2"/>
<path fill-rule="evenodd" clip-rule="evenodd" d="M4.0009 7.3975C4.13951 5.72229 4.90275 4.16039 6.1392 3.02165C7.37565 1.88292 8.99497 1.25055 10.6759 1.25H11.0359C12.7168 1.25055 14.3361 1.88292 15.5726 3.02165C16.809 4.16039 17.5723 5.72229 17.7109 7.3975C17.8647 9.26784 17.2873 11.125 16.1001 12.5783L12.1059 17.4633C11.9545 17.6486 11.7638 17.7979 11.5476 17.9005C11.3314 18.003 11.0952 18.0562 10.8559 18.0562C10.6166 18.0562 10.3803 18.003 10.1642 17.9005C9.94797 17.7979 9.75729 17.6486 9.6059 17.4633L5.61256 12.5783C4.42503 11.1251 3.84731 9.26795 4.0009 7.3975ZM10.8559 4.375C9.80608 4.375 8.79926 4.79204 8.05693 5.53437C7.3146 6.2767 6.89756 7.28352 6.89756 8.33333C6.89756 9.38315 7.3146 10.39 8.05693 11.1323C8.79926 11.8746 9.80608 12.2917 10.8559 12.2917C11.9057 12.2917 12.9125 11.8746 13.6549 11.1323C14.3972 10.39 14.8142 9.38315 14.8142 8.33333C14.8142 7.28352 14.3972 6.2767 13.6549 5.53437C12.9125 4.79204 11.9057 4.375 10.8559 4.375Z" fill="#BBBCC2"/>
</svg>
