<svg width="20" height="20" viewBox="0 0 20 20" fill="none" xmlns="http://www.w3.org/2000/svg">
<path d="M17.5013 8.33333H5.83464V5.83333C5.83464 4.91417 6.58214 4.16667 7.5013 4.16667C8.42047 4.16667 9.16797 4.91417 9.16797 5.83333H10.8346C10.8346 3.995 9.33964 2.5 7.5013 2.5C5.66297 2.5 4.16797 3.995 4.16797 5.83333V8.33333H2.5013C2.28029 8.33333 2.06833 8.42113 1.91205 8.57741C1.75577 8.73369 1.66797 8.94565 1.66797 9.16667V10.8333C1.66797 13.005 3.06297 14.8525 5.0013 15.5417V18.3333H6.66797V15.8333H13.3346V18.3333H15.0013V15.5417C16.9396 14.8525 18.3346 13.005 18.3346 10.8333V9.16667C18.3346 8.94565 18.2468 8.73369 18.0906 8.57741C17.9343 8.42113 17.7223 8.33333 17.5013 8.33333ZM16.668 10.8333C16.668 12.6717 15.173 14.1667 13.3346 14.1667H6.66797C4.82964 14.1667 3.33464 12.6717 3.33464 10.8333V10H16.668V10.8333Z" fill="#3A4999"/>
</svg>
