<svg width="20" height="20" viewBox="0 0 20 20" fill="none" xmlns="http://www.w3.org/2000/svg">
<path d="M17.5013 8.98268V6.66602C17.5013 5.29102 16.3763 4.16602 15.0013 4.16602H11.668C11.0263 4.16602 10.443 4.41602 10.0013 4.81602C9.55964 4.41602 8.9763 4.16602 8.33464 4.16602H5.0013C3.6263 4.16602 2.5013 5.29102 2.5013 6.66602V8.98268C1.99297 9.44102 1.66797 10.0994 1.66797 10.8327V15.8327H3.33464V14.166H16.668V15.8327H18.3346V10.8327C18.3346 10.0994 18.0096 9.44102 17.5013 8.98268ZM11.668 5.83268H15.0013C15.4596 5.83268 15.8346 6.20768 15.8346 6.66602V8.33268H10.8346V6.66602C10.8346 6.20768 11.2096 5.83268 11.668 5.83268ZM4.16797 6.66602C4.16797 6.20768 4.54297 5.83268 5.0013 5.83268H8.33464C8.79297 5.83268 9.16797 6.20768 9.16797 6.66602V8.33268H4.16797V6.66602ZM3.33464 12.4994V10.8327C3.33464 10.3744 3.70964 9.99935 4.16797 9.99935H15.8346C16.293 9.99935 16.668 10.3744 16.668 10.8327V12.4994H3.33464Z" fill="#3A4999"/>
</svg>
