<svg width="403" height="341" viewBox="0 0 403 341" fill="none" xmlns="http://www.w3.org/2000/svg">
<path d="M353.375 408.041L566.449 297.248L213.075 113.506L0 224.298L353.375 408.041Z" fill="#3A4999"/>
<path d="M558.476 297.249L213.076 117.652L7.97266 224.296L353.375 403.896L558.476 297.249Z" fill="#A9A2F6"/>
<path d="M287.11 367.856L350.855 334.71L417.113 369.161L353.366 402.307L287.11 367.856ZM213.802 263.448L272.592 294.016L208.847 327.161L150.056 296.592L213.802 263.448ZM410.858 222.122L348.982 254.295L290.192 223.726L352.068 191.553L410.858 222.122ZM427.245 294.99L489.12 262.816L555.377 297.267L493.5 329.44L427.245 294.99ZM422.567 297.423L488.823 331.873L421.789 366.729L355.534 332.278L422.567 297.423ZM353.66 256.728L415.535 224.554L484.441 260.384L422.567 292.557L353.66 256.728ZM277.271 291.584L218.479 261.015L285.515 226.159L344.305 256.728L277.271 291.584ZM346.178 332.278L282.431 365.424L213.525 329.595L277.271 296.448L346.178 332.278ZM281.948 294.016L348.982 259.16L417.889 294.99L350.855 329.845L281.948 294.016ZM415.563 219.701L415.55 219.681L415.536 219.689L352.068 186.686L140.699 296.592L353.366 407.173L564.735 297.267L415.563 219.701Z" fill="#F0EFFB"/>
<path d="M59.1016 162.877V166.683C59.2344 167.737 60.1123 168.837 61.7862 169.698C64.0722 170.895 67.1816 171.35 69.8128 170.991C70.9279 170.848 71.9647 170.56 72.8153 170.105L120.493 145.308C121.742 144.687 122.327 143.826 122.381 142.939L122.407 139.229L119.377 139.445C116.135 137.889 111.431 137.745 108.693 139.181L68.2966 160.173L61.6273 163.643L61.4944 162.877H59.1016Z" fill="#C7784C"/>
<path d="M59.1016 162.877V166.683C59.2344 167.737 60.1123 168.837 61.7862 169.698C64.0723 170.895 67.1816 171.35 69.8128 170.991V160.173H68.2967L61.6273 163.643L61.4944 162.877H59.1016Z" fill="#DFCFB5"/>
<path d="M72.8112 166.522L120.5 141.725C123.326 140.256 122.971 137.689 119.708 135.992V135.991C116.445 134.295 111.509 134.111 108.683 135.581L60.9936 160.378C58.1674 161.847 58.5226 164.414 61.7858 166.11C65.0491 167.807 69.985 167.991 72.8112 166.522Z" fill="white"/>
<path d="M287.572 157.16L287.557 157.136L287.541 157.143L213.767 118.782L9.88672 224.508L266.141 357.701L470.02 251.976L287.572 157.16Z" fill="#E8E6F9"/>
<path d="M470.02 217.879L414.35 188.932V155.736L420.254 157.661L414.346 154.61V151.294L374.85 133.872L374.691 134.123L296.565 93.7625L292.991 92.5972V90.2845L249.595 29.159L233.527 37.5196L197.9 46.0826L55.003 120.435L58.8685 119.505L58.7555 119.565V142.605L9.88672 168.015V105.733L213.777 -0.000228882L470.02 133.186V217.879Z" fill="url(#paint0_linear_370_3798)"/>
<path d="M470.02 246.678L414.35 217.731V188.504L470.02 217.45V246.678ZM9.88672 218.725V167.586L58.7555 142.177V173.647V193.773L9.88672 218.725Z" fill="url(#paint1_linear_370_3798)"/>
<path d="M147.768 165.853L58.7539 119.568L201.65 45.2164L290.664 91.5017L147.768 165.853Z" fill="#A8A2F6"/>
<path d="M147.773 261.823V165.852L290.669 91.501V187.472L147.773 261.823Z" fill="#7065F0"/>
<path d="M187.368 236.789L156.18 253.007V189.231L187.368 173.014V236.789Z" fill="#F7F7FD"/>
<path d="M58.7539 215.539V119.568L147.768 165.852V261.823L58.7539 215.539Z" fill="#A8A2F6"/>
<path d="M70.8164 142.414V204.119L82.7334 210.302V148.596L70.8164 142.414Z" fill="#F7F7FD"/>
<path d="M87.4883 151.077V212.782L99.404 218.965V157.259L87.4883 151.077Z" fill="#F7F7FD"/>
<path d="M104.156 159.739V221.445L116.073 227.627V165.922L104.156 159.739Z" fill="#F7F7FD"/>
<path d="M120.832 168.401V230.106L132.748 236.289V174.584L120.832 168.401Z" fill="#F7F7FD"/>
<path d="M318.233 205.348L194.543 141.45L290.659 91.4953L414.348 155.394L318.233 205.348Z" fill="#7065F0"/>
<path d="M318.234 301.397V205.349L414.35 155.395V251.443L318.234 301.397Z" fill="#7065F0"/>
<path d="M194.543 237.499V141.451L318.233 205.349V301.397L194.543 237.499Z" fill="#A8A2F6"/>
<path d="M309.707 290.209L203.07 234.762V171.281L309.707 226.728V290.209Z" fill="#F7F7FD"/>
<path d="M171.625 165.438L166.758 160.467L188.912 148.939L194.547 151.85V154.003L171.625 165.438Z" fill="#3A4999"/>
<path d="M194.543 154.004V151.851L194.553 151.857L194.554 153.998L194.543 154.004Z" fill="#013BA1"/>
<path d="M55.0039 120.438L106.699 108.012L249.596 33.6598L197.901 46.0855L55.0039 120.438Z" fill="#3A4999"/>
<path d="M150.093 169.137L106.695 108.011L249.592 33.6592L292.989 94.7847L150.093 169.137Z" fill="#3F461D"/>
<path d="M292.989 90.2868V94.7848L150.094 169.137V164.638L292.989 90.2868Z" fill="#7065F0"/>
<path d="M119.453 141.194L103.212 120.462L72.3559 126.64L58.7539 119.568L61.2722 118.931L106.696 108.013L128.553 138.798L119.453 141.194Z" fill="#3A4999"/>
<path d="M58.7576 129.363L58.7539 119.568L72.3559 126.64L58.7576 129.363Z" fill="#3A4999"/>
<path d="M61.2734 118.931L106.499 107.489L106.697 107.77V108.012L61.2734 118.931Z" fill="#3A4999"/>
<path d="M55.0039 115.938L106.699 103.514L249.596 29.1619L197.901 41.5865L55.0039 115.938Z" fill="#CBC7FA"/>
<path d="M150.093 164.639L106.695 103.514L249.592 29.1623L292.989 90.2878L150.093 164.639Z" fill="#A8A2F6"/>
<path d="M179.176 131.243L154.684 123.36L154.686 108.877L175.056 115.649L184.282 125.035L179.176 131.243Z" fill="#3A4999"/>
<path d="M154.683 107.757L145.828 103.153L154.628 98.5765L163.483 103.182L154.683 107.757Z" fill="#A8A2F6"/>
<path d="M154.688 107.714L145.176 102.766L154.628 97.8513L164.141 102.798L154.688 107.714Z" fill="#CBC7FA"/>
<path d="M154.688 109.2L164.141 104.284V102.797L154.688 107.713V109.2Z" fill="#3A4999"/>
<path d="M145.176 104.254L154.688 109.2V107.713L145.176 102.765V104.254Z" fill="#A8A2F6"/>
<path d="M160.897 103.17L154.672 106.414L154.652 106.395L148.426 103.152L154.631 99.9266L154.652 99.9456L160.897 103.17Z" fill="#3A4999"/>
<path d="M160.897 103.17L154.672 106.414L154.652 106.395V99.9457L160.897 103.17Z" fill="#A8A2F6"/>
<path d="M154.684 123.358L163.484 118.783V103.179L154.684 107.754V123.358Z" fill="#3A4999"/>
<path d="M145.836 110.97L154.69 123.358V107.754L145.836 103.15V110.97Z" fill="#A8A2F6"/>
<path d="M154.692 99.5254L153.441 98.8745L154.683 98.2293L155.934 98.879L154.692 99.5254Z" fill="#A8A2F6"/>
<path d="M154.688 107.333L155.929 106.688V98.8774L154.688 99.5237V107.333Z" fill="#3A4999"/>
<path d="M153.441 106.683L154.692 107.333V99.5237L153.441 98.8729V106.683Z" fill="#A8A2F6"/>
<path d="M154.691 99.5254L153.848 99.087L154.676 98.6587L155.526 99.0903L154.691 99.5254Z" fill="#3A4999"/>
<path d="M154.696 101.921L154.688 101.916V99.5254L155.523 99.0904L155.926 99.2939V101.285L154.696 101.921Z" fill="#3A4999"/>
<path d="M154.691 101.917L153.445 101.264V99.2945L153.848 99.0876L154.691 99.526V101.917Z" fill="#3A4999"/>
<path d="M162.247 95.5908L160.996 94.9411L162.238 94.2947L163.49 94.9444L162.247 95.5908Z" fill="#A8A2F6"/>
<path d="M162.246 103.399L163.489 102.754V94.9437L162.246 95.5901V103.399Z" fill="#3A4999"/>
<path d="M160.996 102.75L162.246 103.399V95.5902L160.996 94.9404V102.75Z" fill="#A8A2F6"/>
<path d="M162.248 95.5908L161.398 95.1502L161.942 94.8628L162.787 95.3101L162.248 95.5908Z" fill="#3A4999"/>
<path d="M162.246 97.9922V95.5911L162.785 95.3104L163.489 95.6828V97.3458L162.246 97.9922Z" fill="#3A4999"/>
<path d="M162.242 97.9932L161.008 97.4765V95.355L161.398 95.1493L162.247 95.5899V97.9909L162.242 97.9932Z" fill="#3A4999"/>
<path d="M147.08 95.5703L145.828 94.9206L147.071 94.2742L148.322 94.925L147.08 95.5703Z" fill="#A8A2F6"/>
<path d="M147.082 103.381L148.324 102.734V94.9252L147.082 95.5705V103.381Z" fill="#3A4999"/>
<path d="M145.828 102.73L147.08 103.381V95.5705L145.828 94.9207V102.73Z" fill="#A8A2F6"/>
<path d="M147.08 95.5703L146.523 95.2818L147.362 94.8412L147.913 95.1375L147.08 95.5703Z" fill="#3A4999"/>
<path d="M147.082 97.9688V95.5699L147.915 95.1371L148.32 95.3552V97.3458L147.082 97.9688Z" fill="#3A4999"/>
<path d="M147.08 97.9697L145.84 97.3233V95.6414L146.528 95.2813L147.084 95.5698V97.9686L147.08 97.9697Z" fill="#3A4999"/>
<path d="M154.689 99.5127L144.227 94.072L154.624 88.666L165.087 94.1056L154.689 99.5127Z" fill="white"/>
<path d="M154.695 101.15L165.092 95.7433V94.1072L154.695 99.5143V101.15Z" fill="#A8A2F6"/>
<path d="M144.227 95.7097L154.689 101.15V99.5143L144.227 94.0736V95.7097Z" fill="#CBC7FA"/>
<path d="M312.53 212.803L188.84 148.904L227.531 116.472L351.221 180.371L312.53 212.803Z" fill="#3A4999"/>
<path d="M296.562 93.7651L251.156 78.9596L374.847 142.859L420.251 157.664L296.562 93.7651Z" fill="#DDB79B"/>
<path d="M374.85 142.859L351.221 180.372L227.531 116.473L251.159 78.96L374.85 142.859Z" fill="#433E44"/>
<path d="M318.238 217.88L318.234 208.023V217.787L318.238 217.784V217.88Z" fill="#3A4999"/>
<path d="M318.241 217.88L194.559 153.999V151.858L312.533 212.804L318.237 208.023V217.878" fill="#3A4999"/>
<path d="M194.559 144.113V141.504L194.757 141.401L196.637 142.372L194.559 144.113Z" fill="#3A4999"/>
<path d="M194.559 141.504V141.298L194.757 141.401L194.559 141.504Z" fill="#3A4999"/>
<path d="M312.533 212.803L194.559 151.857V144.113L196.637 142.372L318.241 205.179L318.237 208.022L312.533 212.803Z" fill="#3A4999"/>
<path d="M326.629 200.987L351.222 180.372L374.851 142.859L372.745 141.771L374.851 142.859L413.944 155.607L402.318 161.649L374.851 152.704L353.105 187.225L326.629 200.987Z" fill="#3A4999"/>
<path d="M318.238 217.783V208.019L326.629 200.987L353.105 187.225L351.221 190.216L318.238 217.783ZM414.346 165.566L402.318 161.649L413.944 155.607L414.346 155.737V165.566Z" fill="#3A4999"/>
<path d="M318.238 208.02V205.18L318.234 198.959L344.579 176.94L351.221 180.372L326.629 200.987L318.238 208.02Z" fill="#3A4999"/>
<path d="M414.342 154.61L374.688 134.124L374.846 133.873L414.342 151.295V154.61Z" fill="url(#paint2_linear_370_3798)"/>
<path d="M414.348 155.738L413.946 155.607L374.852 142.86L372.746 141.771L374.852 138.429L372.688 137.31L374.693 134.127L414.348 154.613V155.738Z" fill="#073962"/>
<path d="M351.22 180.372L344.578 176.94L347.854 174.201L351.22 175.94L372.743 141.771L374.849 142.859L351.22 180.372Z" fill="#3A4999"/>
<path d="M318.234 217.787V208.023L318.238 208.02V217.784L318.234 217.787Z" fill="#3A4999"/>
<path d="M318.234 208.024V205.179L318.238 205.182V208.021L318.234 208.024Z" fill="#3A4999"/>
<path d="M312.53 208.372L188.84 144.472L227.531 112.042L351.221 175.941L312.53 208.372Z" fill="#A8A2F6"/>
<path d="M296.562 89.3335L251.156 74.5291L374.847 138.428L420.251 153.232L296.562 89.3335Z" fill="#A8A2F6"/>
<path d="M374.85 138.427L351.221 175.939L227.531 112.042L251.159 74.5285L374.85 138.427Z" fill="#CBC7FA"/>
<path d="M106.699 103.514V108.012L55.0039 120.438V115.938L106.699 103.514Z" fill="#A8A2F6"/>
<path d="M106.695 103.513V108.011L150.093 169.137V164.638L106.695 103.513Z" fill="#A8A2F6"/>
<path d="M420.252 157.664V153.232L374.848 138.427L351.219 175.94L312.527 208.372V212.803L351.219 180.371L374.848 142.858L420.252 157.664Z" fill="#3A4999"/>
<path d="M312.53 212.803V208.372L188.84 144.472V148.904L312.53 212.803Z" fill="#A8A2F6"/>
<path d="M262.123 124.604V101.683L255.14 98.0498L253.688 85.7471H262.123L288.071 98.7588L287.63 102.127L280.971 111.882L262.123 124.604Z" fill="#3A4999"/>
<path d="M270.636 98.1818V111.18L262.125 124.604V101.683L270.636 98.1818Z" fill="#3A4999"/>
<path d="M262.125 124.604L245.254 115.825V92.9044L262.125 101.683V124.604Z" fill="#A8A2F6"/>
<path d="M259.762 101.165L240.793 91.2936L254.003 84.6395L272.973 94.511L259.762 101.165Z" fill="#CBC7FA"/>
<path d="M259.762 100.405L240.793 90.5327L254.003 83.8786L272.973 93.7501L259.762 100.405Z" fill="white"/>
<path d="M261.031 103.004L270.636 98.1806L272.973 94.5113L259.762 101.165L261.031 103.004Z" fill="#3A4999"/>
<path d="M240.793 91.2949L242.062 93.1323L261.031 103.005L259.762 101.166L240.793 91.2949Z" fill="#A8A2F6"/>
<path d="M259.762 101.165V100.405L272.973 93.7494V94.511L259.762 101.165Z" fill="#A8A2F6"/>
<path d="M259.762 101.165V100.405L240.793 90.532V91.2936L259.762 101.165Z" fill="#CBC7FA"/>
<path d="M246.754 115.443V97.2573L260.629 104.467V122.653L246.754 115.443Z" fill="#A8A2F6"/>
<path d="M248.379 99.7992V114.599L259.002 120.111V105.311L248.379 99.7992Z" fill="white"/>
<path d="M250.209 100.751V113.898L259.002 118.457V120.111L248.379 114.6V99.7992L250.209 100.751Z" fill="#3A4999"/>
<path d="M250.209 113.898L248.379 114.6L259.002 120.111V118.457L250.209 113.898Z" fill="#CBC7FA"/>
<path d="M251.563 114.601H248.379L250.209 113.898V100.751L251.599 101.47L251.563 114.601Z" fill="#3A4999"/>
<path d="M297.763 142.982L291.714 124.333L289.328 104.125H297.763L323.712 117.137L323.271 120.505L316.61 130.26L297.763 142.982Z" fill="#3A4999"/>
<path d="M306.271 116.559V129.558L297.762 142.982V120.062L306.271 116.559Z" fill="#3A4999"/>
<path d="M297.763 142.982L280.891 134.202V111.282L297.763 120.062V142.982Z" fill="#A8A2F6"/>
<path d="M295.4 119.544L276.43 109.672L289.641 103.018L308.609 112.891L295.4 119.544Z" fill="#CBC7FA"/>
<path d="M295.4 118.781L276.43 108.91L289.641 102.256L308.609 112.127L295.4 118.781Z" fill="white"/>
<path d="M296.67 121.382L306.275 116.557L308.612 112.89L295.402 119.543L296.67 121.382Z" fill="#3A4999"/>
<path d="M276.43 109.672L277.697 111.509L296.668 121.382L295.4 119.543L276.43 109.672Z" fill="#A8A2F6"/>
<path d="M295.402 119.544V118.782L308.612 112.128V112.891L295.402 119.544Z" fill="#A8A2F6"/>
<path d="M295.4 119.544V118.782L276.43 108.911V109.672L295.4 119.544Z" fill="#CBC7FA"/>
<path d="M282.387 133.821V115.635L296.263 122.845V141.031L282.387 133.821Z" fill="#A8A2F6"/>
<path d="M284.016 118.176V132.976L294.639 138.488V123.688L284.016 118.176Z" fill="white"/>
<path d="M285.846 119.128V132.276L294.639 136.834V138.488L284.016 132.977V118.176L285.846 119.128Z" fill="#3A4999"/>
<path d="M285.846 132.276L284.016 132.977L294.639 138.488V136.834L285.846 132.276Z" fill="#CBC7FA"/>
<path d="M284.016 132.978H287.201L287.237 119.847L285.846 119.128V132.276L284.016 132.978Z" fill="#3A4999"/>
<path d="M333.401 161.358L327.351 142.709L324.965 122.501H333.401L359.349 135.513L358.908 138.881L352.246 148.636L333.401 161.358Z" fill="#3A4999"/>
<path d="M341.908 134.936V147.935L333.398 161.358V138.438L341.908 134.936Z" fill="#3A4999"/>
<path d="M333.404 161.358L316.531 152.578V129.658L333.404 138.438V161.358Z" fill="#A8A2F6"/>
<path d="M331.039 137.923L312.07 128.051L325.281 121.397L344.25 131.27L331.039 137.923Z" fill="#CBC7FA"/>
<path d="M331.039 137.161L312.07 127.29L325.281 120.636L344.25 130.508L331.039 137.161Z" fill="white"/>
<path d="M332.304 139.76L341.909 134.936L344.246 131.268L331.035 137.921L332.304 139.76Z" fill="#3A4999"/>
<path d="M312.07 128.05L313.339 129.887L332.308 139.76L331.039 137.921L312.07 128.05Z" fill="#A8A2F6"/>
<path d="M331.035 137.923V137.161L344.246 130.508V131.27L331.035 137.923Z" fill="#A8A2F6"/>
<path d="M331.039 137.923V137.161L312.07 127.29V128.051L331.039 137.923Z" fill="#CBC7FA"/>
<path d="M318.027 152.199V134.012L331.904 141.222V159.408L318.027 152.199Z" fill="#A8A2F6"/>
<path d="M319.652 136.555V151.354L330.275 156.866V142.066L319.652 136.555Z" fill="white"/>
<path d="M321.483 137.506V150.654L330.274 155.212V156.866L319.652 151.355V136.554L321.483 137.506Z" fill="#3A4999"/>
<path d="M321.483 150.654L319.652 151.355L330.274 156.866V155.212L321.483 150.654Z" fill="#CBC7FA"/>
<path d="M319.652 151.354H322.837L322.872 138.224L321.483 137.505V150.653L319.652 151.354Z" fill="#3A4999"/>
<defs>
<linearGradient id="paint0_linear_370_3798" x1="239.954" y1="81.7193" x2="239.954" y2="193.566" gradientUnits="userSpaceOnUse">
<stop stop-color="#F7F7FD"/>
<stop offset="1" stop-color="#E8E6F9"/>
</linearGradient>
<linearGradient id="paint1_linear_370_3798" x1="239.954" y1="81.7232" x2="239.954" y2="193.57" gradientUnits="userSpaceOnUse">
<stop stop-color="#FFFCF7"/>
<stop offset="1" stop-color="#E8E6F9"/>
</linearGradient>
<linearGradient id="paint2_linear_370_3798" x1="239.95" y1="81.7201" x2="239.95" y2="193.567" gradientUnits="userSpaceOnUse">
<stop stop-color="#0850A1"/>
<stop offset="1" stop-color="#074CA1"/>
</linearGradient>
</defs>
</svg>
