<svg width="49" height="48" viewBox="0 0 49 48" fill="none" xmlns="http://www.w3.org/2000/svg">
<rect x="0.5" width="48" height="48" rx="24" fill="#EFF8FF"/>
<path d="M23.3571 19L17.6429 29M18.5 31H30.4998M31.3571 29L25.6429 19M16.1 33H16.9C17.4601 33 17.7401 33 17.954 32.891C18.1422 32.7951 18.2951 32.6422 18.391 32.454C18.5 32.2401 18.5 31.9601 18.5 31.4V30.6C18.5 30.0399 18.5 29.7599 18.391 29.546C18.2951 29.3578 18.1422 29.2049 17.954 29.109C17.7401 29 17.4601 29 16.9 29H16.1C15.5399 29 15.2599 29 15.046 29.109C14.8578 29.2049 14.7049 29.3578 14.609 29.546C14.5 29.7599 14.5 30.0399 14.5 30.6V31.4C14.5 31.9601 14.5 32.2401 14.609 32.454C14.7049 32.6422 14.8578 32.7951 15.046 32.891C15.2599 33 15.5399 33 16.1 33ZM32.1 33H32.9C33.4601 33 33.7401 33 33.954 32.891C34.1422 32.7951 34.2951 32.6422 34.391 32.454C34.5 32.2401 34.5 31.9601 34.5 31.4V30.6C34.5 30.0399 34.5 29.7599 34.391 29.546C34.2951 29.3578 34.1422 29.2049 33.954 29.109C33.7401 29 33.4601 29 32.9 29H32.1C31.5399 29 31.2599 29 31.046 29.109C30.8578 29.2049 30.7049 29.3578 30.609 29.546C30.5 29.7599 30.5 30.0399 30.5 30.6V31.4C30.5 31.9601 30.5 32.2401 30.609 32.454C30.7049 32.6422 30.8578 32.7951 31.046 32.891C31.2599 33 31.5399 33 32.1 33ZM24.1 19H24.9C25.4601 19 25.7401 19 25.954 18.891C26.1422 18.7951 26.2951 18.6422 26.391 18.454C26.5 18.2401 26.5 17.9601 26.5 17.4V16.6C26.5 16.0399 26.5 15.7599 26.391 15.546C26.2951 15.3578 26.1422 15.2049 25.954 15.109C25.7401 15 25.4601 15 24.9 15H24.1C23.5399 15 23.2599 15 23.046 15.109C22.8578 15.2049 22.7049 15.3578 22.609 15.546C22.5 15.7599 22.5 16.0399 22.5 16.6V17.4C22.5 17.9601 22.5 18.2401 22.609 18.454C22.7049 18.6422 22.8578 18.7951 23.046 18.891C23.2599 19 23.5399 19 24.1 19Z" stroke="#1570EF" stroke-width="2" stroke-linecap="round" stroke-linejoin="round"/>
</svg>
