<svg width="24" height="24" viewBox="0 0 24 24" fill="none" xmlns="http://www.w3.org/2000/svg">
<path d="M3.60156 4.79961C3.60156 4.48135 3.72799 4.17612 3.95303 3.95108C4.17808 3.72604 4.4833 3.59961 4.80156 3.59961H19.2016C19.5198 3.59961 19.825 3.72604 20.0501 3.95108C20.2751 4.17612 20.4016 4.48135 20.4016 4.79961V7.19961C20.4016 7.51787 20.2751 7.82309 20.0501 8.04814C19.825 8.27318 19.5198 8.39961 19.2016 8.39961H4.80156C4.4833 8.39961 4.17808 8.27318 3.95303 8.04814C3.72799 7.82309 3.60156 7.51787 3.60156 7.19961V4.79961ZM3.60156 11.9996C3.60156 11.6813 3.72799 11.3761 3.95303 11.1511C4.17808 10.926 4.4833 10.7996 4.80156 10.7996H12.0016C12.3198 10.7996 12.625 10.926 12.8501 11.1511C13.0751 11.3761 13.2016 11.6813 13.2016 11.9996V19.1996C13.2016 19.5179 13.0751 19.8231 12.8501 20.0481C12.625 20.2732 12.3198 20.3996 12.0016 20.3996H4.80156C4.4833 20.3996 4.17808 20.2732 3.95303 20.0481C3.72799 19.8231 3.60156 19.5179 3.60156 19.1996V11.9996ZM16.8016 10.7996C16.4833 10.7996 16.1781 10.926 15.953 11.1511C15.728 11.3761 15.6016 11.6813 15.6016 11.9996V19.1996C15.6016 19.5179 15.728 19.8231 15.953 20.0481C16.1781 20.2732 16.4833 20.3996 16.8016 20.3996H19.2016C19.5198 20.3996 19.825 20.2732 20.0501 20.0481C20.2751 19.8231 20.4016 19.5179 20.4016 19.1996V11.9996C20.4016 11.6813 20.2751 11.3761 20.0501 11.1511C19.825 10.926 19.5198 10.7996 19.2016 10.7996H16.8016Z" fill="white"/>
</svg>
