<svg width="33" height="30" viewBox="0 0 33 30" fill="none" xmlns="http://www.w3.org/2000/svg">
<path d="M0 7.5C0 6.50544 0.434597 5.55161 1.20818 4.84835C1.98177 4.14509 3.03098 3.75 4.125 3.75H28.875C29.969 3.75 31.0182 4.14509 31.7918 4.84835C32.5654 5.55161 33 6.50544 33 7.5V22.5C33 23.4946 32.5654 24.4484 31.7918 25.1516C31.0182 25.8549 29.969 26.25 28.875 26.25H4.125C3.03098 26.25 1.98177 25.8549 1.20818 25.1516C0.434597 24.4484 0 23.4946 0 22.5V7.5ZM5.15625 9.375C4.88275 9.375 4.62044 9.47377 4.42705 9.64959C4.23365 9.8254 4.125 10.0639 4.125 10.3125V12.1875C4.125 12.4361 4.23365 12.6746 4.42705 12.8504C4.62044 13.0262 4.88275 13.125 5.15625 13.125H9.28125C9.55475 13.125 9.81706 13.0262 10.0105 12.8504C10.2039 12.6746 10.3125 12.4361 10.3125 12.1875V10.3125C10.3125 10.0639 10.2039 9.8254 10.0105 9.64959C9.81706 9.47377 9.55475 9.375 9.28125 9.375H5.15625ZM5.15625 15C4.88275 15 4.62044 15.0988 4.42705 15.2746C4.23365 15.4504 4.125 15.6889 4.125 15.9375C4.125 16.1861 4.23365 16.4246 4.42705 16.6004C4.62044 16.7762 4.88275 16.875 5.15625 16.875H15.4688C15.7423 16.875 16.0046 16.7762 16.198 16.6004C16.3913 16.4246 16.5 16.1861 16.5 15.9375C16.5 15.6889 16.3913 15.4504 16.198 15.2746C16.0046 15.0988 15.7423 15 15.4688 15H5.15625ZM5.15625 18.75C4.88275 18.75 4.62044 18.8488 4.42705 19.0246C4.23365 19.2004 4.125 19.4389 4.125 19.6875C4.125 19.9361 4.23365 20.1746 4.42705 20.3504C4.62044 20.5262 4.88275 20.625 5.15625 20.625H7.21875C7.49225 20.625 7.75456 20.5262 7.94795 20.3504C8.14135 20.1746 8.25 19.9361 8.25 19.6875C8.25 19.4389 8.14135 19.2004 7.94795 19.0246C7.75456 18.8488 7.49225 18.75 7.21875 18.75H5.15625ZM11.3438 18.75C11.0702 18.75 10.8079 18.8488 10.6145 19.0246C10.4211 19.2004 10.3125 19.4389 10.3125 19.6875C10.3125 19.9361 10.4211 20.1746 10.6145 20.3504C10.8079 20.5262 11.0702 20.625 11.3438 20.625H13.4062C13.6798 20.625 13.9421 20.5262 14.1355 20.3504C14.3289 20.1746 14.4375 19.9361 14.4375 19.6875C14.4375 19.4389 14.3289 19.2004 14.1355 19.0246C13.9421 18.8488 13.6798 18.75 13.4062 18.75H11.3438ZM17.5312 18.75C17.2577 18.75 16.9954 18.8488 16.802 19.0246C16.6086 19.2004 16.5 19.4389 16.5 19.6875C16.5 19.9361 16.6086 20.1746 16.802 20.3504C16.9954 20.5262 17.2577 20.625 17.5312 20.625H19.5938C19.8673 20.625 20.1296 20.5262 20.323 20.3504C20.5164 20.1746 20.625 19.9361 20.625 19.6875C20.625 19.4389 20.5164 19.2004 20.323 19.0246C20.1296 18.8488 19.8673 18.75 19.5938 18.75H17.5312ZM23.7188 18.75C23.4452 18.75 23.1829 18.8488 22.9895 19.0246C22.7961 19.2004 22.6875 19.4389 22.6875 19.6875C22.6875 19.9361 22.7961 20.1746 22.9895 20.3504C23.1829 20.5262 23.4452 20.625 23.7188 20.625H25.7812C26.0548 20.625 26.3171 20.5262 26.5105 20.3504C26.7039 20.1746 26.8125 19.9361 26.8125 19.6875C26.8125 19.4389 26.7039 19.2004 26.5105 19.0246C26.3171 18.8488 26.0548 18.75 25.7812 18.75H23.7188Z" fill="url(#paint0_linear_1002_7962)"/>
<defs>
<linearGradient id="paint0_linear_1002_7962" x1="16.5" y1="3.75" x2="16.5" y2="26.25" gradientUnits="userSpaceOnUse">
<stop offset="0.806269" stop-color="#617AFF"/>
<stop offset="0.806369" stop-color="#FFB819"/>
</linearGradient>
</defs>
</svg>
