<svg width="24" height="16" viewBox="0 0 24 16" fill="none" xmlns="http://www.w3.org/2000/svg">
<path fill-rule="evenodd" clip-rule="evenodd" d="M1.6268 1.39187L1.76036 1.24162C2.24986 0.729739 2.97911 0.473633 3.94744 0.473633H20.5426C21.4551 0.473633 22.1563 0.696348 22.6462 1.14144L22.6629 1.15814C22.763 1.24729 22.8635 1.35281 22.9634 1.47535C22.9634 1.4867 22.9691 1.49772 22.9801 1.50874L22.9968 1.52544C23.3644 1.98189 23.5477 2.62733 23.5477 3.46209V12.9116C23.5367 14.9151 22.535 15.9168 20.5426 15.9168H3.94744C1.95503 15.9058 0.958984 14.904 0.958984 12.9116V3.46209C0.958984 2.56054 1.1817 1.87036 1.6268 1.39187ZM21.0935 2.10977C20.9266 2.06536 20.7429 2.04833 20.5429 2.05969H3.94744C3.8249 2.04867 3.70803 2.05401 3.59684 2.07638L12.1949 10.7913L21.0935 2.10977ZM2.54504 3.27844C2.53402 3.3342 2.53402 3.39531 2.54504 3.46209V12.9116C2.54504 13.8579 3.01251 14.3307 3.94744 14.3307H20.5426C21.4885 14.3307 21.9617 13.8579 21.9617 12.9116V3.47879L12.7459 12.4775C12.5789 12.6335 12.3899 12.7113 12.1786 12.7113C11.9558 12.7003 11.7665 12.6221 11.6109 12.4775L2.54504 3.27844Z" fill="#0073E6"/>
<path fill-rule="evenodd" clip-rule="evenodd" d="M1.62695 1.39147C1.64932 1.35808 1.67704 1.32469 1.71043 1.2913C1.72178 1.26892 1.73814 1.25223 1.76051 1.24121L1.62695 1.39147Z" fill="#0073E6"/>
</svg>
