<svg width="20" height="20" viewBox="0 0 20 20" fill="none" xmlns="http://www.w3.org/2000/svg">
<g clip-path="url(#clip0_490_300)">
<path d="M17.2617 6.56848L11.7065 2.25163C11.219 1.87272 10.619 1.66699 10.0013 1.66699C9.38364 1.66699 8.78361 1.87272 8.29609 2.25163L2.73984 6.56848C2.40593 6.82791 2.13577 7.16015 1.95001 7.53982C1.76424 7.91949 1.66777 8.33656 1.66797 8.75916V16.2522C1.66797 16.8043 1.88746 17.3337 2.27816 17.724C2.66886 18.1144 3.19877 18.3337 3.7513 18.3337H16.2513C16.8038 18.3337 17.3337 18.1144 17.7244 17.724C18.1151 17.3337 18.3346 16.8043 18.3346 16.2522V8.75916C18.3346 7.90266 17.9388 7.09403 17.2617 6.56848Z" stroke="#3A4999" stroke-width="2" stroke-linecap="round" stroke-linejoin="round"/>
</g>
<defs>
<clipPath id="clip0_490_300">
<rect width="20" height="20" fill="white"/>
</clipPath>
</defs>
</svg>
