<svg width="20" height="20" viewBox="0 0 20 20" fill="none" xmlns="http://www.w3.org/2000/svg">
<path d="M9.85547 6.66602L14.8555 4.16602L9.85547 1.66602V9.99935" stroke="#BBBCC2" stroke-width="2" stroke-linecap="round" stroke-linejoin="round"/>
<path d="M6.52142 9.99023L1.93808 12.6069C1.80983 12.6796 1.70316 12.785 1.62894 12.9123C1.55473 13.0397 1.51562 13.1845 1.51562 13.3319C1.51562 13.4793 1.55473 13.6241 1.62894 13.7515C1.70316 13.8788 1.80983 13.9842 1.93808 14.0569L9.02142 18.1069C9.27478 18.2532 9.56219 18.3302 9.85475 18.3302C10.1473 18.3302 10.4347 18.2532 10.6881 18.1069L17.7714 14.0569C17.8997 13.9842 18.0063 13.8788 18.0806 13.7515C18.1548 13.6241 18.1939 13.4793 18.1939 13.3319C18.1939 13.1845 18.1548 13.0397 18.0806 12.9123C18.0063 12.785 17.8997 12.6796 17.7714 12.6069L13.1881 9.99857M5.26308 10.7069L14.4464 15.9569M14.4464 10.7069L5.27142 15.9569" stroke="#BBBCC2" stroke-width="2" stroke-linecap="round" stroke-linejoin="round"/>
</svg>
