<svg width="40" height="41" viewBox="0 0 40 41" fill="none" xmlns="http://www.w3.org/2000/svg">
<rect y="0.0234375" width="40" height="40" rx="8" fill="white"/>
<path d="M24.0525 22.6026C24.0525 26.2501 21.0956 29.2069 17.4481 29.2069C13.8006 29.2069 10.8438 26.2501 10.8438 22.6026C10.8438 18.9551 13.8006 15.9982 17.4481 15.9982C21.0956 15.9982 24.0525 18.9551 24.0525 22.6026Z" fill="#252534"/>
<path d="M25.7013 22.5928C28.213 21.658 30.0022 19.2385 30.0022 16.4012C30.0022 12.7537 27.0453 9.79687 23.3978 9.79687C20.464 9.79687 17.977 11.7099 17.1161 14.3565C17.2264 14.3521 17.3373 14.3499 17.4487 14.3499C22.0032 14.3499 25.696 18.0395 25.7013 22.5928Z" fill="#252534"/>
</svg>
