<svg width="25" height="25" viewBox="0 0 25 25" fill="none" xmlns="http://www.w3.org/2000/svg">
<path d="M12.5 1.5625C10.3368 1.5625 8.22212 2.20397 6.42346 3.4058C4.62479 4.60763 3.22291 6.31583 2.39507 8.3144C1.56724 10.313 1.35064 12.5121 1.77267 14.6338C2.19469 16.7555 3.23639 18.7043 4.76602 20.234C6.29566 21.7636 8.24454 22.8053 10.3662 23.2273C12.4879 23.6494 14.687 23.4328 16.6856 22.6049C18.6842 21.7771 20.3924 20.3752 21.5942 18.5765C22.796 16.7779 23.4375 14.6632 23.4375 12.5C23.4375 9.59919 22.2852 6.8172 20.234 4.76602C18.1828 2.71484 15.4008 1.5625 12.5 1.5625ZM6.25001 14.0625C5.94097 14.0625 5.63888 13.9709 5.38193 13.7992C5.12497 13.6275 4.92471 13.3835 4.80644 13.0979C4.68818 12.8124 4.65724 12.4983 4.71753 12.1952C4.77782 11.8921 4.92663 11.6137 5.14515 11.3951C5.36367 11.1766 5.64208 11.0278 5.94518 10.9675C6.24827 10.9072 6.56244 10.9382 6.84795 11.0564C7.13346 11.1747 7.37749 11.375 7.54918 11.6319C7.72087 11.8889 7.81251 12.191 7.81251 12.5C7.81251 12.9144 7.64788 13.3118 7.35486 13.6049C7.06183 13.8979 6.66441 14.0625 6.25001 14.0625ZM12.5 14.0625C12.191 14.0625 11.8889 13.9709 11.6319 13.7992C11.375 13.6275 11.1747 13.3835 11.0564 13.0979C10.9382 12.8124 10.9072 12.4983 10.9675 12.1952C11.0278 11.8921 11.1766 11.6137 11.3952 11.3951C11.6137 11.1766 11.8921 11.0278 12.1952 10.9675C12.4983 10.9072 12.8124 10.9382 13.0979 11.0564C13.3835 11.1747 13.6275 11.375 13.7992 11.6319C13.9709 11.8889 14.0625 12.191 14.0625 12.5C14.0625 12.9144 13.8979 13.3118 13.6049 13.6049C13.3118 13.8979 12.9144 14.0625 12.5 14.0625ZM18.75 14.0625C18.441 14.0625 18.1389 13.9709 17.8819 13.7992C17.625 13.6275 17.4247 13.3835 17.3064 13.0979C17.1882 12.8124 17.1572 12.4983 17.2175 12.1952C17.2778 11.8921 17.4266 11.6137 17.6452 11.3951C17.8637 11.1766 18.1421 11.0278 18.4452 10.9675C18.7483 10.9072 19.0624 10.9382 19.3479 11.0564C19.6335 11.1747 19.8775 11.375 20.0492 11.6319C20.2209 11.8889 20.3125 12.191 20.3125 12.5C20.3125 12.9144 20.1479 13.3118 19.8549 13.6049C19.5618 13.8979 19.1644 14.0625 18.75 14.0625Z" fill="#C4C4C4"/>
</svg>
