<svg width="24" height="25" viewBox="0 0 24 25" fill="none" xmlns="http://www.w3.org/2000/svg">
<g clip-path="url(#clip0_508_515)">
<path d="M12.8541 6.91952C14.0283 7.12108 15.1017 7.67655 15.9572 8.52968C16.808 9.38046 17.3658 10.4539 17.5673 11.6305C17.6447 12.0945 18.0431 12.4297 18.5142 12.4297C18.5752 12.4297 18.6291 12.4226 18.6666 12.4156C18.6689 12.4156 18.6713 12.4156 18.6736 12.4133C18.9291 12.3711 19.1517 12.2328 19.2994 12.0195C19.447 11.8086 19.5033 11.5555 19.4588 11.3047C19.1916 9.73436 18.4509 8.30468 17.3142 7.16796C16.1728 6.03124 14.7408 5.29061 13.1728 5.02577H13.1705C12.6478 4.93905 12.1533 5.29296 12.0666 5.81327C11.9845 6.33827 12.3361 6.8328 12.8541 6.91952Z" fill="#0073E6"/>
<path d="M18.7614 14.9656C18.2364 14.4195 17.6013 14.1312 16.9239 14.1312C16.2536 14.1312 15.6138 14.4148 15.077 14.9539L13.7435 16.2875C13.7106 16.2711 13.6778 16.2547 13.6474 16.2383L13.5794 16.2055C13.4364 16.1328 13.2724 16.0508 13.1364 15.9664C11.7677 15.0969 10.5184 13.9578 9.31376 12.4813C8.79814 11.832 8.4372 11.2812 8.17236 10.7328C8.50751 10.4164 8.81923 10.1 9.1122 9.8C9.17782 9.73437 9.24345 9.66641 9.31142 9.59844C9.37704 9.53047 9.44501 9.4625 9.51298 9.39453C10.0708 8.83672 10.3661 8.18984 10.3638 7.52422C10.3638 6.86094 10.0684 6.21641 9.51298 5.66328L8.21689 4.36719C8.14189 4.29219 8.06689 4.21719 7.99423 4.14219C7.92157 4.06719 7.84657 3.99219 7.77392 3.91953L7.67079 3.81406C7.41532 3.55391 7.15048 3.28438 6.88329 3.03828C6.36298 2.52031 5.73251 2.24609 5.06454 2.24609C4.39892 2.24609 3.76376 2.52031 3.22235 3.03828C3.22001 3.04063 3.21767 3.04062 3.21767 3.04297L1.59345 4.66484C0.930167 5.32812 0.552823 6.13672 0.470792 7.06719V7.06953C0.384073 8.17109 0.583292 9.33359 1.09892 10.7281C1.87939 12.8375 3.05126 14.7922 4.78329 16.8781C6.89736 19.3977 9.43564 21.3852 12.3255 22.7844H12.3278C13.4411 23.3164 14.9364 23.9398 16.6239 24.05C16.6263 24.05 16.6286 24.05 16.6309 24.05H16.6427C16.7388 24.0547 16.8395 24.0594 16.945 24.0594C18.1286 24.0594 19.127 23.6305 19.9099 22.7844L19.9216 22.7727C19.931 22.7633 19.938 22.7563 19.945 22.7469C20.1794 22.4656 20.4489 22.2055 20.7513 21.9148C20.9599 21.7156 21.1731 21.5117 21.3794 21.2914C21.9114 20.7359 22.1927 20.0891 22.1903 19.4211C22.188 18.7508 21.902 18.1109 21.363 17.5719L18.7614 14.9656ZM18.5036 21.4977C18.0864 21.943 17.6083 22.1422 16.9567 22.1422C16.8958 22.1422 16.8278 22.1375 16.7575 22.1328C15.4075 22.0461 14.1302 21.5117 13.1692 21.0547C10.5161 19.7773 8.1911 17.9586 6.25751 15.6477C4.67548 13.7422 3.60907 11.9656 2.9036 10.0625C2.48173 8.93047 2.32235 8.05391 2.38798 7.22656C2.43017 6.74375 2.61064 6.35938 2.95517 6.01953L4.56767 4.40703C4.73642 4.24531 4.90985 4.15859 5.07157 4.15859C5.22392 4.15859 5.38564 4.24297 5.55673 4.40938C5.55907 4.41172 5.56142 4.41406 5.56376 4.41641C5.84267 4.67891 6.11454 4.95547 6.40282 5.24609L6.4122 5.25547C6.55048 5.39844 6.70986 5.5625 6.87157 5.71953L8.16532 7.01328C8.54267 7.39062 8.54267 7.65547 8.16532 8.03281C8.02939 8.16875 7.8911 8.30703 7.75517 8.44766L7.65907 8.54609C7.29579 8.91406 6.9536 9.26094 6.58095 9.59141C6.57626 9.59609 6.56923 9.60078 6.56454 9.60781L6.54111 9.63125C6.14501 10.0273 6.0372 10.5008 6.22235 11.0352C6.22704 11.0492 6.23173 11.0609 6.23642 11.0727C6.23876 11.0797 6.24111 11.0867 6.24579 11.0938C6.59267 11.9305 7.08017 12.725 7.83017 13.6742C7.83017 13.6766 7.83251 13.6766 7.83251 13.6789C9.16376 15.3172 10.5677 16.5969 12.1263 17.5859C12.3302 17.7148 12.5411 17.8227 12.738 17.9211C12.8833 17.9937 13.0474 18.0781 13.1833 18.1602C13.1927 18.1672 13.202 18.1719 13.2114 18.1766L13.2184 18.1813C13.2325 18.1883 13.2466 18.1977 13.263 18.2047C13.4669 18.3078 13.6684 18.357 13.877 18.357C14.2333 18.357 14.5614 18.2094 14.8263 17.9305L16.4481 16.3086C16.5653 16.1914 16.7481 16.0508 16.9403 16.0508C17.1184 16.0508 17.2919 16.1891 17.4044 16.3063C17.4067 16.3086 17.4067 16.3086 17.4091 16.3109L20.027 18.9289C20.2849 19.1867 20.4606 19.4914 20.0059 19.9695L20.0036 19.9719C19.8606 20.1266 19.7083 20.2742 19.5466 20.4313C19.5114 20.4641 19.4763 20.4992 19.4411 20.5344C19.113 20.8414 18.7989 21.1461 18.5036 21.4977Z" fill="#0073E6"/>
<path d="M23.5334 11.1174C23.1021 8.57909 21.9021 6.26347 20.0623 4.42362C18.2154 2.58143 15.8998 1.38143 13.3592 0.952527C12.8365 0.865809 12.342 1.21972 12.2553 1.74003C12.1685 2.26268 12.5225 2.75722 13.0404 2.84393C15.1896 3.20956 17.1467 4.22675 18.7029 5.78065C20.2592 7.3369 21.274 9.29393 21.6396 11.4408C21.717 11.9049 22.1154 12.24 22.5865 12.24C22.5889 12.24 22.5912 12.24 22.5935 12.24C22.6521 12.24 22.7014 12.233 22.7389 12.226C22.7412 12.226 22.7435 12.226 22.7459 12.2236C23.0014 12.1814 23.224 12.0432 23.3717 11.8299C23.5217 11.6213 23.5779 11.3682 23.5334 11.1174Z" fill="#0073E6"/>
</g>
<defs>
<clipPath id="clip0_508_515">
<rect width="24" height="24" fill="white" transform="translate(0 0.5)"/>
</clipPath>
</defs>
</svg>
