<svg width="363" height="341" viewBox="0 0 363 341" fill="none" xmlns="http://www.w3.org/2000/svg">
<path d="M176.308 324.77L13.2118 204.625C8.02088 201.039 3.56506 195.022 8.62891 191.108L172.315 73.4746C174.774 71.5744 178.504 70.3302 180.999 72.1399L352.208 196.04C357.399 199.795 358.334 210.292 353.116 214.058L197.834 324.578C194.569 326.942 190.866 328.203 187.091 328.237C183.316 328.271 179.599 327.076 176.308 324.77Z" fill="#FFB819"/>
<path d="M118.81 178.972C115.96 179.809 84.0709 206.322 84.0709 206.322C84.0709 206.322 82.6552 237.665 116.677 259.325C150.7 280.986 172.035 272.898 172.035 272.898L240.914 221.705" fill="url(#paint0_linear_409_5497)"/>
<path d="M224.499 75.5674C213.337 69.9119 199.751 66.6431 185.113 66.6431C149.303 66.6431 119.864 86.3694 116.488 111.604V185.894L185.014 189.186L224.526 150.548V75.5674H224.499Z" fill="#560881"/>
<path d="M185.566 110.846L184.359 179.752L224.462 142.403L224.507 75.5669L185.566 110.846Z" fill="#560881"/>
<path opacity="0.52" d="M185.566 110.846L184.359 179.752L224.462 142.403L224.507 75.5669L185.566 110.846Z" fill="#606060"/>
<path opacity="0.26" d="M185.564 110.846L116.476 111.616L116.312 154.507L184.357 179.753L185.564 110.846Z" fill="#606060"/>
<path d="M196.574 226.206V245.514C196.574 245.514 215.514 243.659 230.397 232.654C245.28 221.648 248.665 212.056 249.545 203.245C249.681 201.831 249.781 179.786 249.781 179.786" fill="#C90180"/>
<path d="M184.359 179.753L224.462 142.427C224.462 142.427 248.238 152.606 249.781 179.753C251.324 206.899 218.245 223.865 196.574 226.195L184.359 179.753Z" fill="#F0008D"/>
<path d="M197.745 189.649V245.39C197.745 245.39 170.066 251.226 141.843 235.108C121.941 223.797 118.347 210.224 116.496 200.044V141.091" fill="#EDAF24"/>
<path d="M116.479 141.091H184.95L197.737 189.728C197.737 189.728 162.236 195.61 135.954 175.669C113.176 158.318 116.479 141.091 116.479 141.091Z" fill="#FFCB44"/>
<path d="M36.9894 189.389L22.9141 197.839L57.5715 222.779L78.0719 211.321" fill="url(#paint1_linear_409_5497)"/>
<path d="M42.0518 196.64C46.8633 196.64 50.7638 194.452 50.7638 191.753C50.7638 189.055 46.8633 186.867 42.0518 186.867C37.2403 186.867 33.3398 189.055 33.3398 191.753C33.3398 194.452 37.2403 196.64 42.0518 196.64Z" fill="#560881"/>
<path d="M33.3398 191.753V164.539H50.7548V191.753L44.375 194.389" fill="#560881"/>
<path opacity="0.65" d="M33.3398 164.539V191.753C33.3398 194.457 37.2421 196.64 42.0518 196.64C46.8616 196.64 50.7638 194.445 50.7638 191.753V164.539H33.3398Z" fill="#0FB7CE"/>
<path d="M42.0518 169.425C46.8633 169.425 50.7638 167.237 50.7638 164.539C50.7638 161.84 46.8633 159.652 42.0518 159.652C37.2403 159.652 33.3398 161.84 33.3398 164.539C33.3398 167.237 37.2403 169.425 42.0518 169.425Z" fill="#560881"/>
<path d="M55.0675 206.424C59.879 206.424 63.7795 204.236 63.7795 201.537C63.7795 198.839 59.879 196.651 55.0675 196.651C50.256 196.651 46.3555 198.839 46.3555 201.537C46.3555 204.236 50.256 206.424 55.0675 206.424Z" fill="#EDAF24"/>
<path d="M46.3555 201.537V181.969H63.7795V201.537L57.3997 204.173" fill="#EDAF24"/>
<path d="M55.0675 186.856C59.879 186.856 63.7795 184.668 63.7795 181.969C63.7795 179.271 59.879 177.083 55.0675 177.083C50.256 177.083 46.3555 179.271 46.3555 181.969C46.3555 184.668 50.256 186.856 55.0675 186.856Z" fill="#FFCB44"/>
<path d="M70.3956 213.9C75.2071 213.9 79.1076 211.712 79.1076 209.014C79.1076 206.315 75.2071 204.127 70.3956 204.127C65.5841 204.127 61.6836 206.315 61.6836 209.014C61.6836 211.712 65.5841 213.9 70.3956 213.9Z" fill="#C90180"/>
<path d="M61.6836 209.014V197.397H79.1076V209.014L72.7279 211.649" fill="#C90180"/>
<path d="M70.3956 202.725C75.2071 202.725 79.1076 200.537 79.1076 197.839C79.1076 195.14 75.2071 192.952 70.3956 192.952C65.5841 192.952 61.6836 195.14 61.6836 197.839C61.6836 200.537 65.5841 202.725 70.3956 202.725Z" fill="#F0008D"/>
<path d="M349.969 168.735V90.26C349.969 87.6585 349.678 86.1994 348.072 85.1022L262.522 23.3558C262.353 23.1982 262.153 23.1023 261.943 23.0787C261.733 23.0551 261.523 23.1048 261.334 23.2223C261.146 23.3397 260.987 23.5202 260.876 23.7436C260.766 23.9669 260.707 24.2243 260.707 24.4869L260.916 105.179L349.969 168.735Z" fill="#560881"/>
<path d="M285.69 46.1926C285.181 46.2638 284.69 46.4634 284.245 46.7792C283.8 47.0951 283.412 47.5206 283.104 48.0297C282.795 48.5389 282.574 49.121 282.452 49.7406C282.33 50.3601 282.311 51.0041 282.396 51.6332C282.46 52.9496 282.925 54.1856 283.696 55.0894C284.467 55.9931 285.485 56.4965 286.543 56.4969C287.051 56.4258 287.543 56.2262 287.988 55.9103C288.432 55.5944 288.821 55.1689 289.129 54.6598C289.437 54.1506 289.659 53.5685 289.781 52.949C289.902 52.3294 289.922 51.6854 289.837 51.0563C289.772 49.74 289.307 48.5039 288.537 47.6002C287.766 46.6964 286.748 46.193 285.69 46.1926Z" fill="#252534"/>
<path d="M276.526 41.0349C276.017 41.1061 275.526 41.3057 275.081 41.6215C274.636 41.9374 274.248 42.3629 273.94 42.872C273.631 43.3812 273.41 43.9633 273.288 44.5828C273.166 45.2024 273.147 45.8464 273.231 46.4755C273.296 47.7918 273.761 49.0279 274.532 49.9316C275.302 50.8354 276.321 51.3388 277.379 51.3392C277.887 51.268 278.379 51.0684 278.824 50.7526C279.268 50.4367 279.656 50.0112 279.965 49.5021C280.273 48.9929 280.495 48.4108 280.617 47.7912C280.738 47.1717 280.758 46.5277 280.673 45.8986C280.608 44.5823 280.143 43.3462 279.373 42.4425C278.602 41.5387 277.584 41.0353 276.526 41.0349Z" fill="#F8997C"/>
<path d="M266.957 36.0129C265.964 36.4721 265.147 37.3829 264.671 38.5621C264.194 39.7414 264.094 41.1017 264.389 42.3697C264.481 42.9905 264.674 43.5816 264.954 44.1069C265.235 44.6323 265.599 45.081 266.023 45.4258C266.448 45.7707 266.924 46.0044 267.423 46.113C267.922 46.2215 268.434 46.2024 268.926 46.0571C269.92 45.5979 270.737 44.6871 271.213 43.5079C271.689 42.3286 271.79 40.9683 271.495 39.7003C271.403 39.0794 271.21 38.4884 270.929 37.963C270.648 37.4377 270.285 36.989 269.86 36.6441C269.436 36.2993 268.96 36.0655 268.461 35.957C267.962 35.8485 267.45 35.8675 266.957 36.0129Z" fill="#5FAD00"/>
<path d="M276.87 65.4208C282.623 63.1586 289.075 68.9951 291.562 78.7451C292.698 82.9646 292.79 87.5126 291.825 91.7979C290.772 96.0735 288.604 99.0482 285.727 100.191C284.911 100.514 284.06 100.678 283.204 100.677C280.881 100.599 278.645 99.5562 276.851 97.7136C274.079 94.905 272.049 91.1214 271.025 86.8551C268.548 77.1163 271.107 67.6943 276.87 65.4208Z" fill="#252534"/>
<path d="M281.325 65.1838V83.2813L270.68 74.2325C270.68 74.2325 272.694 63.3061 281.325 65.1838Z" fill="#F8997C"/>
<path d="M281.326 83.2585L270.545 84.3896C270.545 84.3896 269.183 78.5871 270.69 74.2097L281.326 83.2585Z" fill="#5FAD00"/>
<path d="M302.614 82.8969C308.368 80.6347 314.82 86.4711 317.307 96.2212C318.443 100.441 318.535 104.989 317.57 109.274C316.517 113.55 314.348 116.524 311.472 117.667C310.656 117.99 309.805 118.154 308.949 118.153C306.625 118.075 304.39 117.032 302.596 115.19C299.824 112.381 297.794 108.597 296.77 104.331C294.293 94.5924 296.861 85.1704 302.614 82.8969Z" fill="#252534"/>
<path d="M307.036 82.6589V100.756L296.391 91.7076C296.391 91.7076 298.442 80.7812 307.036 82.6589Z" fill="#F8997C"/>
<path d="M307.033 100.734L296.252 101.865C296.252 101.865 294.89 96.0629 296.397 91.6855L307.033 100.734Z" fill="#5FAD00"/>
<path d="M329.306 100.768C335.059 98.5058 341.512 104.342 343.998 114.092C345.135 118.312 345.226 122.86 344.261 127.145C343.209 131.421 341.04 134.395 338.163 135.538C337.347 135.861 336.496 136.025 335.64 136.024C333.317 135.946 331.081 134.903 329.288 133.061C326.515 130.252 324.485 126.469 323.461 122.202C320.984 112.475 323.552 103.053 329.306 100.768Z" fill="#252534"/>
<path d="M333.723 100.531V118.628L323.078 109.579C323.078 109.579 325.129 98.6643 333.723 100.531Z" fill="#F8997C"/>
<path d="M333.724 118.605L322.943 119.737C322.943 119.737 321.582 113.934 323.088 109.557L333.724 118.605Z" fill="#5FAD00"/>
<path d="M307.224 228.468L266.994 246.373C266.994 246.373 262.112 246.803 282.34 261.79L315.863 232.766" fill="url(#paint2_linear_409_5497)"/>
<path d="M295.965 173.384C297.29 173.29 298.614 173.613 299.813 174.323C301.043 175.189 302.003 176.549 302.535 178.18C303.125 179.73 303.388 181.947 304.622 182.942C305.102 183.264 305.518 183.716 305.838 184.266C306.139 184.794 306.331 185.407 306.398 186.05C306.464 186.693 306.403 187.346 306.22 187.953C305.675 189.31 303.397 190.159 302.354 189.898" fill="#8FDB5E"/>
<path d="M294.936 173.554C293.393 173.724 291.93 174.492 290.754 175.749C289.577 177.007 288.746 178.691 288.375 180.566C287.99 182.461 287.974 184.443 288.33 186.346C288.629 187.885 289.355 190.543 290.853 190.656C292.885 190.814 293.575 188.394 294.183 186.505C294.791 184.616 295.49 182.422 297.123 181.652C297.922 181.278 298.79 181.203 299.622 181.436C300.454 181.67 301.213 182.201 301.806 182.964L294.936 173.554Z" fill="#1E8C0E"/>
<path d="M304.231 183.825C303.006 181.845 301.989 179.685 300.8 177.672C300.133 176.355 299.334 175.15 298.423 174.086C295.6 172.378 292.07 173.939 289.965 176.936C290.255 177.05 290.645 177.061 290.872 177.163C292.123 177.762 293.234 178.742 294.103 180.013C295.355 181.732 296.326 183.847 297.424 185.668C299.239 188.643 301.599 191.086 304.684 189.311C306.636 188.18 305.102 185.205 304.231 183.825Z" fill="#8FDB5E"/>
<path d="M314.187 158.386C314.187 158.386 320.54 157.764 320.422 170.297C320.304 182.829 310.802 174.583 312.889 167.028" fill="#1E8C0E"/>
<path d="M313.269 170.715C313.197 166.903 316.636 164.121 319.54 163.623C319.236 162.01 318.503 160.572 317.46 159.545C316.417 158.518 315.125 157.962 313.796 157.968C309.44 158.103 306.182 163.623 305.447 170.116C305.268 172.074 305.466 174.057 306.023 175.901C306.579 177.746 307.48 179.399 308.65 180.725L310.755 182.987C314.612 181.132 313.178 174.199 313.269 170.715Z" fill="#8FDB5E"/>
<path d="M330.595 179.684C330.501 177.317 330 175.003 329.125 172.898C328.721 171.887 328.139 171.003 327.423 170.311C326.706 169.62 325.873 169.139 324.987 168.905L321.402 177.501C321.402 177.501 326.738 165.874 324.56 174.832C322.382 183.79 329.57 193.823 330.55 180.487C330.568 180.182 330.577 179.933 330.595 179.684Z" fill="#1E8C0E"/>
<path d="M305.291 202.058C305.291 202.058 300.509 205.937 301.834 215.009C302.302 218.156 303.013 221.239 303.957 224.216C304.865 227.168 305.563 231.002 307.95 232.642C310.173 234.192 313.613 234.475 315.854 232.767C317.905 231.206 318.64 227.654 319.394 225.019C320.283 221.772 320.892 218.417 321.209 215.009C323.496 193.122 305.291 202.058 305.291 202.058Z" fill="#560881"/>
<path d="M311.736 206.525C315.591 206.525 318.715 205.118 318.715 203.381C318.715 201.644 315.591 200.237 311.736 200.237C307.882 200.237 304.758 201.644 304.758 203.381C304.758 205.118 307.882 206.525 311.736 206.525Z" fill="#560881"/>
<path d="M312.297 186.618C311.326 183.688 309.502 181.223 308.931 178.078C308.571 175.951 308.717 173.74 309.351 171.715C309.984 169.69 311.077 167.939 312.497 166.677C313.033 166.19 312.497 165.082 311.98 165.546C307.515 169.584 306.653 176.483 309.257 182.354C310.193 184.106 310.981 185.975 311.608 187.93C312.252 190.554 311.535 192.454 310.546 194.4C310.6 192.458 310.043 190.567 308.994 189.129C307.833 187.783 306.126 187.568 304.693 186.957C301.916 185.826 299.465 183.813 298.994 179.944C298.894 179.13 297.895 179.481 297.995 180.284C298.208 181.774 298.711 183.177 299.459 184.37C300.207 185.563 301.178 186.51 302.288 187.127C303.63 187.852 305.013 188.453 306.426 188.925C307.037 189.22 307.594 189.666 308.062 190.238C308.53 190.81 308.9 191.495 309.148 192.251C309.811 194.14 309.357 195.44 308.985 197.273C308.504 199.659 307.742 201.707 309.058 203.958C309.448 204.625 310.337 203.958 309.965 203.313C307.869 199.716 311.218 196.3 312.343 193.212C312.716 192.174 312.905 191.047 312.897 189.909C312.889 188.771 312.685 187.648 312.297 186.618Z" fill="#1E8C0E"/>
<path d="M325.176 178.734C320.765 177.762 317.762 182.026 318.025 187.342C318.116 188.675 318.314 189.994 318.615 191.278C318.961 192.36 319.157 193.508 319.195 194.671C319.046 195.493 318.738 196.258 318.299 196.898C317.859 197.538 317.301 198.036 316.673 198.347C315.771 198.763 314.962 199.442 314.315 200.328C313.667 201.213 313.2 202.28 312.952 203.437C312.916 203.602 312.934 203.778 313.002 203.927C313.07 204.075 313.182 204.184 313.315 204.229C313.447 204.274 313.588 204.252 313.708 204.167C313.827 204.082 313.914 203.942 313.95 203.777C314.966 199.117 320.185 199.795 320.23 194.671C320.23 192.172 319.177 189.819 319.059 187.308C318.841 182.931 321.137 179.108 324.904 179.945C325.548 180.126 325.793 178.881 325.176 178.734Z" fill="#1E8C0E"/>
<path d="M329.112 172.875C327.406 168.95 324.302 168.023 321.253 169.199C320.831 169.413 320.422 169.662 320.028 169.945C312.369 177.015 317.804 192.975 318.984 192.861C322.886 192.466 322.487 189.604 323.785 181.551C324.008 179.745 324.75 178.101 325.871 176.924C326.992 175.747 328.418 175.116 329.883 175.149C329.68 174.364 329.422 173.603 329.112 172.875Z" fill="#8FDB5E"/>
<path d="M327.436 170.273C326.159 170.019 324.85 170.256 323.685 170.953C322.519 171.65 321.551 172.775 320.912 174.176C318.116 180.012 318.761 186.81 319.097 193.246C319.142 194.072 320.176 194.072 320.131 193.246C319.859 188.597 319.332 183.982 320.349 179.413C320.848 177.15 321.447 174.673 322.881 173.078C323.655 172.223 324.614 171.67 325.638 171.487C326.663 171.304 327.707 171.5 328.643 172.049L328.253 171.393C327.999 171.02 327.718 170.647 327.436 170.273Z" fill="#1E8C0E"/>
<defs>
<linearGradient id="paint0_linear_409_5497" x1="136.624" y1="253.511" x2="175.497" y2="215.322" gradientUnits="userSpaceOnUse">
<stop stop-color="#DD6F31"/>
<stop offset="0.92" stop-color="#AA4731"/>
</linearGradient>
<linearGradient id="paint1_linear_409_5497" x1="2930.84" y1="6386.56" x2="3117.14" y2="5810.67" gradientUnits="userSpaceOnUse">
<stop stop-color="#DD6F31"/>
<stop offset="0.92" stop-color="#AA4731"/>
</linearGradient>
<linearGradient id="paint2_linear_409_5497" x1="15877" y1="7387.05" x2="16470.6" y2="6717.94" gradientUnits="userSpaceOnUse">
<stop stop-color="#DD6F31"/>
<stop offset="0.92" stop-color="#AA4731"/>
</linearGradient>
</defs>
</svg>
