<svg width="113" height="40" viewBox="0 0 113 40" fill="none" xmlns="http://www.w3.org/2000/svg">
<path d="M8 40L0 32H8V40Z" fill="#3A4999"/>
<path d="M0 8C0 3.58172 3.58172 0 8 0H105C109.418 0 113 3.58172 113 8V24C113 28.4183 109.418 32 105 32H0V8Z" fill="#3A4999"/>
<path fill-rule="evenodd" clip-rule="evenodd" d="M20.0016 9.59961C20.2137 9.59961 20.4172 9.68389 20.5672 9.83392C20.7173 9.98395 20.8016 10.1874 20.8016 10.3996V11.1996H21.6016C21.8137 11.1996 22.0172 11.2839 22.1672 11.4339C22.3173 11.584 22.4016 11.7874 22.4016 11.9996C22.4016 12.2118 22.3173 12.4153 22.1672 12.5653C22.0172 12.7153 21.8137 12.7996 21.6016 12.7996H20.8016V13.5996C20.8016 13.8118 20.7173 14.0153 20.5672 14.1653C20.4172 14.3153 20.2137 14.3996 20.0016 14.3996C19.7894 14.3996 19.5859 14.3153 19.4359 14.1653C19.2858 14.0153 19.2016 13.8118 19.2016 13.5996V12.7996H18.4016C18.1894 12.7996 17.9859 12.7153 17.8359 12.5653C17.6858 12.4153 17.6016 12.2118 17.6016 11.9996C17.6016 11.7874 17.6858 11.584 17.8359 11.4339C17.9859 11.2839 18.1894 11.1996 18.4016 11.1996H19.2016V10.3996C19.2016 10.1874 19.2858 9.98395 19.4359 9.83392C19.5859 9.68389 19.7894 9.59961 20.0016 9.59961ZM20.0016 17.5996C20.2137 17.5996 20.4172 17.6839 20.5672 17.8339C20.7173 17.984 20.8016 18.1874 20.8016 18.3996V19.1996H21.6016C21.8137 19.1996 22.0172 19.2839 22.1672 19.4339C22.3173 19.584 22.4016 19.7874 22.4016 19.9996C22.4016 20.2118 22.3173 20.4153 22.1672 20.5653C22.0172 20.7153 21.8137 20.7996 21.6016 20.7996H20.8016V21.5996C20.8016 21.8118 20.7173 22.0153 20.5672 22.1653C20.4172 22.3153 20.2137 22.3996 20.0016 22.3996C19.7894 22.3996 19.5859 22.3153 19.4359 22.1653C19.2858 22.0153 19.2016 21.8118 19.2016 21.5996V20.7996H18.4016C18.1894 20.7996 17.9859 20.7153 17.8359 20.5653C17.6858 20.4153 17.6016 20.2118 17.6016 19.9996C17.6016 19.7874 17.6858 19.584 17.8359 19.4339C17.9859 19.2839 18.1894 19.1996 18.4016 19.1996H19.2016V18.3996C19.2016 18.1874 19.2858 17.984 19.4359 17.8339C19.5859 17.6839 19.7894 17.5996 20.0016 17.5996ZM25.6016 9.59961C25.7781 9.59955 25.9497 9.6579 26.0897 9.76556C26.2296 9.87322 26.33 10.0241 26.3752 10.1948L27.3184 13.7596L30.0016 15.3068C30.1232 15.377 30.2241 15.478 30.2944 15.5996C30.3646 15.7212 30.4015 15.8592 30.4015 15.9996C30.4015 16.14 30.3646 16.278 30.2944 16.3996C30.2241 16.5212 30.1232 16.6222 30.0016 16.6924L27.3184 18.2404L26.3744 21.8044C26.3291 21.9749 26.2287 22.1257 26.0889 22.2332C25.949 22.3408 25.7776 22.3991 25.6012 22.3991C25.4248 22.3991 25.2533 22.3408 25.1134 22.2332C24.9736 22.1257 24.8732 21.9749 24.828 21.8044L23.8848 18.2396L21.2016 16.6924C21.08 16.6222 20.979 16.5212 20.9088 16.3996C20.8386 16.278 20.8016 16.14 20.8016 15.9996C20.8016 15.8592 20.8386 15.7212 20.9088 15.5996C20.979 15.478 21.08 15.377 21.2016 15.3068L23.8848 13.7588L24.8288 10.1948C24.8739 10.0243 24.9742 9.87345 25.114 9.7658C25.2537 9.65816 25.4251 9.59973 25.6016 9.59961Z" fill="white"/>
<path d="M36.864 21V12.06H40.2C40.808 12.06 41.344 12.172 41.808 12.396C42.28 12.612 42.648 12.932 42.912 13.356C43.176 13.772 43.308 14.28 43.308 14.88C43.308 15.472 43.172 15.98 42.9 16.404C42.636 16.82 42.272 17.14 41.808 17.364C41.344 17.588 40.808 17.7 40.2 17.7H38.496V21H36.864ZM38.496 16.26H40.224C40.52 16.26 40.776 16.204 40.992 16.092C41.208 15.972 41.376 15.808 41.496 15.6C41.616 15.392 41.676 15.152 41.676 14.88C41.676 14.6 41.616 14.36 41.496 14.16C41.376 13.952 41.208 13.792 40.992 13.68C40.776 13.56 40.52 13.5 40.224 13.5H38.496V16.26ZM49.5493 21.144C48.8933 21.144 48.2813 21.028 47.7133 20.796C47.1453 20.564 46.6493 20.24 46.2253 19.824C45.8013 19.408 45.4693 18.92 45.2293 18.36C44.9973 17.792 44.8813 17.18 44.8813 16.524C44.8813 15.86 44.9973 15.248 45.2293 14.688C45.4613 14.128 45.7893 13.64 46.2133 13.224C46.6373 12.808 47.1333 12.488 47.7013 12.264C48.2693 12.032 48.8853 11.916 49.5493 11.916C50.2133 11.916 50.8293 12.032 51.3973 12.264C51.9653 12.496 52.4613 12.82 52.8853 13.236C53.3093 13.644 53.6373 14.128 53.8693 14.688C54.1093 15.248 54.2293 15.86 54.2293 16.524C54.2293 17.18 54.1093 17.792 53.8693 18.36C53.6293 18.92 53.2973 19.408 52.8733 19.824C52.4493 20.24 51.9533 20.564 51.3853 20.796C50.8253 21.028 50.2133 21.144 49.5493 21.144ZM49.5493 19.656C49.9893 19.656 50.3933 19.58 50.7613 19.428C51.1293 19.268 51.4493 19.048 51.7213 18.768C52.0013 18.488 52.2133 18.156 52.3573 17.772C52.5093 17.388 52.5853 16.972 52.5853 16.524C52.5853 16.076 52.5093 15.664 52.3573 15.288C52.2133 14.904 52.0013 14.572 51.7213 14.292C51.4493 14.004 51.1293 13.784 50.7613 13.632C50.3933 13.48 49.9893 13.404 49.5493 13.404C49.1173 13.404 48.7173 13.48 48.3493 13.632C47.9813 13.784 47.6573 14.004 47.3773 14.292C47.1053 14.572 46.8933 14.904 46.7413 15.288C46.5893 15.664 46.5133 16.076 46.5133 16.524C46.5133 16.972 46.5893 17.388 46.7413 17.772C46.8933 18.156 47.1053 18.488 47.3773 18.768C47.6573 19.048 47.9813 19.268 48.3493 19.428C48.7173 19.58 49.1173 19.656 49.5493 19.656ZM56.1804 21V12.06H59.5164C60.1244 12.06 60.6604 12.172 61.1244 12.396C61.5964 12.612 61.9644 12.932 62.2284 13.356C62.4924 13.772 62.6244 14.28 62.6244 14.88C62.6244 15.472 62.4884 15.98 62.2164 16.404C61.9524 16.82 61.5884 17.14 61.1244 17.364C60.6604 17.588 60.1244 17.7 59.5164 17.7H57.8124V21H56.1804ZM57.8124 16.26H59.5404C59.8364 16.26 60.0924 16.204 60.3084 16.092C60.5244 15.972 60.6924 15.808 60.8124 15.6C60.9324 15.392 60.9924 15.152 60.9924 14.88C60.9924 14.6 60.9324 14.36 60.8124 14.16C60.6924 13.952 60.5244 13.792 60.3084 13.68C60.0924 13.56 59.8364 13.5 59.5404 13.5H57.8124V16.26ZM67.9057 21.144C67.2177 21.144 66.6057 21 66.0697 20.712C65.5417 20.424 65.1257 20.028 64.8217 19.524C64.5177 19.02 64.3657 18.448 64.3657 17.808V12.06H65.9977V17.724C65.9977 18.092 66.0777 18.424 66.2377 18.72C66.4057 19.016 66.6337 19.248 66.9217 19.416C67.2097 19.576 67.5377 19.656 67.9057 19.656C68.2817 19.656 68.6097 19.576 68.8897 19.416C69.1777 19.248 69.4017 19.016 69.5617 18.72C69.7297 18.424 69.8137 18.092 69.8137 17.724V12.06H71.4457V17.808C71.4457 18.448 71.2937 19.02 70.9897 19.524C70.6857 20.028 70.2657 20.424 69.7297 20.712C69.2017 21 68.5937 21.144 67.9057 21.144ZM73.5749 21V12.06H75.2069V19.56H79.0349V21H73.5749ZM79.8586 21L82.9426 12.06H85.0546L88.1386 21H86.3626L85.7266 19.08H82.2706L81.6226 21H79.8586ZM82.7386 17.64H85.2586L83.7706 13.188H84.2266L82.7386 17.64ZM89.6335 21V12.06H92.9575C93.5655 12.06 94.1015 12.172 94.5655 12.396C95.0375 12.612 95.4055 12.932 95.6695 13.356C95.9335 13.772 96.0655 14.28 96.0655 14.88C96.0655 15.496 95.9175 16.02 95.6215 16.452C95.3335 16.884 94.9415 17.204 94.4455 17.412L96.4975 21H94.6495L92.4535 17.076L93.5095 17.7H91.2655V21H89.6335ZM91.2655 16.26H92.9815C93.2775 16.26 93.5335 16.204 93.7495 16.092C93.9655 15.972 94.1335 15.808 94.2535 15.6C94.3735 15.392 94.4335 15.152 94.4335 14.88C94.4335 14.6 94.3735 14.36 94.2535 14.16C94.1335 13.952 93.9655 13.792 93.7495 13.68C93.5335 13.56 93.2775 13.5 92.9815 13.5H91.2655V16.26Z" fill="white"/>
</svg>
