<svg width="45" height="45" viewBox="0 0 45 45" fill="none" xmlns="http://www.w3.org/2000/svg">
<g clip-path="url(#clip0_409_6027)">
<path d="M20.25 27H2.25V40.5C2.25 41.6935 2.72411 42.8381 3.56802 43.682C4.41193 44.5259 5.55653 45 6.75 45H38.25C39.4435 45 40.5881 44.5259 41.432 43.682C42.2759 42.8381 42.75 41.6935 42.75 40.5V27H24.75V31.5H20.25V27ZM20.25 24.75H0V11.25C0 8.775 2.025 6.75 4.5 6.75H13.5V4.5C13.5 3.30653 13.9741 2.16193 14.818 1.31802C15.6619 0.474106 16.8065 0 18 0L27 0C28.1935 0 29.3381 0.474106 30.182 1.31802C31.0259 2.16193 31.5 3.30653 31.5 4.5V6.75H40.5C41.6935 6.75 42.8381 7.22411 43.682 8.06802C44.5259 8.91193 45 10.0565 45 11.25V24.75H24.75V20.25H20.25V24.75ZM27 6.75V4.5H18V6.75H27Z" fill="url(#paint0_linear_409_6027)"/>
</g>
<defs>
<linearGradient id="paint0_linear_409_6027" x1="22.5" y1="0" x2="22.5" y2="45" gradientUnits="userSpaceOnUse">
<stop offset="0.806269" stop-color="#617AFF"/>
<stop offset="0.806369" stop-color="#FFB819"/>
</linearGradient>
<clipPath id="clip0_409_6027">
<rect width="45" height="45" fill="white"/>
</clipPath>
</defs>
</svg>
