<svg width="19" height="19" viewBox="0 0 19 19" fill="none" xmlns="http://www.w3.org/2000/svg">
<path d="M1.52344 5.83268V12.4993C1.52344 12.9414 1.69903 13.3653 2.01159 13.6779C2.32415 13.9904 2.74808 14.166 3.1901 14.166H4.02344M1.52344 5.83268V4.16602C1.52344 3.72399 1.69903 3.30006 2.01159 2.9875C2.32415 2.67494 2.74808 2.49935 3.1901 2.49935H4.85677M1.52344 5.83268C2.40749 5.83268 3.25534 5.48149 3.88046 4.85637C4.50558 4.23125 4.85677 3.3834 4.85677 2.49935M4.85677 2.49935H15.6901M7.99344 9.99935C7.56768 9.52307 7.34041 8.90187 7.35829 8.26328C7.37616 7.62469 7.63781 7.01718 8.08954 6.56545C8.54127 6.11373 9.14878 5.85207 9.78737 5.8342C10.426 5.81632 11.0472 6.04359 11.5234 6.46935M1.52344 16.666L16.5234 1.66602M17.5401 15.0385L17.9976 9.82102C18.0601 9.10018 17.4993 8.46268 16.7443 8.39602L16.0609 8.33685M14.5784 17.4085L15.9451 17.5285C16.7001 17.5943 17.3634 17.0635 17.4268 16.3435L17.5409 15.0385C16.0301 14.9068 14.7043 15.9677 14.5784 17.4085ZM14.5784 17.4085L5.6901 16.631M9.3126 13.7335C9.65344 14.1668 10.0959 14.3877 10.7043 14.441C11.8368 14.5402 12.8318 13.7443 12.9259 12.6635C12.9768 12.0835 12.8551 11.606 12.4668 11.211" stroke="#BBBCC2" stroke-width="2" stroke-linecap="round" stroke-linejoin="round"/>
</svg>
