<svg width="64" height="64" viewBox="0 0 64 64" fill="none" xmlns="http://www.w3.org/2000/svg">
<circle cx="32" cy="32" r="31.5" fill="white" stroke="#E0DEF7"/>
<circle cx="32" cy="32" r="28" fill="#E0DEF7"/>
<g clip-path="url(#clip0_370_3746)">
<path fill-rule="evenodd" clip-rule="evenodd" d="M18.668 32.0003H21.6309V42.3707C21.6309 43.1565 21.943 43.9102 22.4987 44.4658C23.0544 45.0215 23.808 45.3337 24.5938 45.3337H39.4086C40.1945 45.3337 40.9481 45.0215 41.5038 44.4658C42.0594 43.9102 42.3716 43.1565 42.3716 42.3707V32.0003H42.3717H45.3346L32.0013 18.667L18.668 32.0003Z" fill="white"/>
<path d="M21.6309 32.0003H22.6309C22.6309 31.448 22.1831 31.0003 21.6309 31.0003V32.0003ZM18.668 32.0003L17.9609 31.2932C17.6749 31.5792 17.5893 32.0093 17.7441 32.383C17.8989 32.7567 18.2635 33.0003 18.668 33.0003V32.0003ZM22.4987 44.4658L23.2058 43.7587L22.4987 44.4658ZM41.5038 44.4658L40.7967 43.7587L40.7967 43.7587L41.5038 44.4658ZM42.3716 32.0003V31.0003C41.8193 31.0003 41.3716 31.448 41.3716 32.0003H42.3716ZM45.3346 32.0003V33.0003C45.7391 33.0003 46.1037 32.7567 46.2585 32.383C46.4133 32.0093 46.3277 31.5792 46.0417 31.2932L45.3346 32.0003ZM32.0013 18.667L32.7084 17.9599C32.3179 17.5694 31.6847 17.5694 31.2942 17.9599L32.0013 18.667ZM21.6309 31.0003H18.668V33.0003H21.6309V31.0003ZM20.6309 32.0003V42.3707H22.6309V32.0003H20.6309ZM20.6309 42.3707C20.6309 43.4217 21.0484 44.4297 21.7916 45.1729L23.2058 43.7587C22.8377 43.3906 22.6309 42.8913 22.6309 42.3707H20.6309ZM21.7916 45.1729C22.5348 45.9161 23.5428 46.3337 24.5938 46.3337V44.3337C24.0732 44.3337 23.5739 44.1268 23.2058 43.7587L21.7916 45.1729ZM24.5938 46.3337H39.4086V44.3337H24.5938V46.3337ZM39.4086 46.3337C40.4597 46.3337 41.4677 45.9161 42.2109 45.1729L40.7967 43.7587C40.4285 44.1268 39.9292 44.3337 39.4086 44.3337V46.3337ZM42.2109 45.1729C42.9541 44.4297 43.3716 43.4217 43.3716 42.3707H41.3716C41.3716 42.8913 41.1648 43.3906 40.7967 43.7587L42.2109 45.1729ZM43.3716 42.3707V32.0003H41.3716V42.3707H43.3716ZM42.3717 31.0003H42.3716V33.0003H42.3717V31.0003ZM45.3346 31.0003H42.3717V33.0003H45.3346V31.0003ZM31.2942 19.3741L44.6275 32.7074L46.0417 31.2932L32.7084 17.9599L31.2942 19.3741ZM19.3751 32.7074L32.7084 19.3741L31.2942 17.9599L17.9609 31.2932L19.3751 32.7074Z" fill="white"/>
<path d="M28 34.0007L30.6667 36.6673L36 31.334" stroke="#7065F0" stroke-width="2" stroke-linecap="round" stroke-linejoin="round"/>
</g>
<path d="M40 40H64V52C64 58.6274 58.6274 64 52 64C45.3726 64 40 58.6274 40 52V40Z" fill="#7065F0"/>
<path d="M56.3605 46.7801L52.6939 45.4068C52.3139 45.2668 51.6939 45.2668 51.3139 45.4068L47.6472 46.7801C46.9405 47.0468 46.3672 47.8734 46.3672 48.6268V54.0268C46.3672 54.5668 46.7205 55.2801 47.1539 55.6001L50.8205 58.3401C51.4672 58.8268 52.5272 58.8268 53.1739 58.3401L56.8405 55.6001C57.2739 55.2734 57.6272 54.5668 57.6272 54.0268V48.6268C57.6339 47.8734 57.0605 47.0468 56.3605 46.7801ZM52.5005 52.5801V54.3334C52.5005 54.6068 52.2739 54.8334 52.0005 54.8334C51.7272 54.8334 51.5005 54.6068 51.5005 54.3334V52.5801C50.8272 52.3668 50.3339 51.7401 50.3339 51.0001C50.3339 50.0801 51.0805 49.3334 52.0005 49.3334C52.9205 49.3334 53.6672 50.0801 53.6672 51.0001C53.6672 51.7468 53.1739 52.3668 52.5005 52.5801Z" fill="white"/>
<defs>
<clipPath id="clip0_370_3746">
<rect width="32" height="32" fill="white" transform="translate(16 16)"/>
</clipPath>
</defs>
</svg>
