<svg width="15" height="15" viewBox="0 0 15 15" fill="none" xmlns="http://www.w3.org/2000/svg">
<path d="M4.5 8.57227H4C4 8.70487 4.05268 8.83205 4.14645 8.92582C4.24021 9.01959 4.36739 9.07227 4.5 9.07227V8.57227ZM8.5 8.57227V9.07227C8.63261 9.07227 8.75979 9.01959 8.85355 8.92582C8.94732 8.83205 9 8.70487 9 8.57227H8.5ZM8.5 6.07227H9C9.00012 6.00656 8.98728 5.94148 8.96223 5.88073C8.93718 5.81999 8.9004 5.76478 8.854 5.71827L8.5 6.07227ZM6.5 4.07227L6.854 3.71827C6.80755 3.6717 6.75238 3.63476 6.69163 3.60955C6.63089 3.58435 6.56577 3.57137 6.5 3.57137C6.43423 3.57137 6.36911 3.58435 6.30837 3.60955C6.24762 3.63476 6.19245 3.6717 6.146 3.71827L6.5 4.07227ZM4.5 6.07227L4.146 5.71827C4.0996 5.76478 4.06282 5.81999 4.03777 5.88073C4.01272 5.94148 3.99988 6.00656 4 6.07227H4.5ZM14.854 14.2183L10.854 10.2183L10.146 10.9263L14.146 14.9263L14.854 14.2183ZM6.5 12.0723C5.04131 12.0723 3.64236 11.4928 2.61091 10.4614C1.57946 9.4299 1 8.03096 1 6.57227H0C0 8.29617 0.684819 9.94947 1.90381 11.1685C3.12279 12.3874 4.77609 13.0723 6.5 13.0723V12.0723ZM12 6.57227C12 8.03096 11.4205 9.4299 10.3891 10.4614C9.35764 11.4928 7.95869 12.0723 6.5 12.0723V13.0723C8.22391 13.0723 9.87721 12.3874 11.0962 11.1685C12.3152 9.94947 13 8.29617 13 6.57227H12ZM6.5 1.07227C7.95869 1.07227 9.35764 1.65173 10.3891 2.68318C11.4205 3.71463 12 5.11357 12 6.57227H13C13 4.84836 12.3152 3.19506 11.0962 1.97607C9.87721 0.757085 8.22391 0.0722656 6.5 0.0722656V1.07227ZM6.5 0.0722656C4.77609 0.0722656 3.12279 0.757085 1.90381 1.97607C0.684819 3.19506 0 4.84836 0 6.57227H1C1 5.11357 1.57946 3.71463 2.61091 2.68318C3.64236 1.65173 5.04131 1.07227 6.5 1.07227V0.0722656ZM4.5 9.07227H8.5V8.07227H4.5V9.07227ZM9 8.57227V6.07227H8V8.57227H9ZM8.854 5.71827L6.854 3.71827L6.146 4.42627L8.146 6.42627L8.854 5.71827ZM6.146 3.71827L4.146 5.71827L4.854 6.42627L6.854 4.42627L6.146 3.71827ZM4 6.07227V8.57227H5V6.07227H4Z" fill="white"/>
</svg>
