<svg width="49" height="45" viewBox="0 0 49 45" fill="none" xmlns="http://www.w3.org/2000/svg">
<path d="M24.3919 20.1855L31.28 27.111M24.3919 20.1855V43.2703V20.1855ZM24.3919 20.1855L17.5039 27.111L24.3919 20.1855Z" stroke="#607AFE" stroke-width="2.31817" stroke-linecap="round" stroke-linejoin="round"/>
<path d="M8.39951 15.8379C6.22797 16.3873 4.3307 17.715 3.06417 19.5717C1.79763 21.4284 1.24901 23.6861 1.52137 25.9208C1.79373 28.1555 2.86834 30.2132 4.54328 31.7075C6.21823 33.2017 8.37823 34.0296 10.6175 34.0356H12.9135" stroke="#607AFE" stroke-width="2.31817" stroke-linecap="round" stroke-linejoin="round"/>
<path d="M33.1882 11.2695C32.4034 8.14517 30.4664 5.43772 27.7699 3.69601C25.0733 1.95431 21.819 1.30867 18.6665 1.88997C15.514 2.47128 12.6994 4.23603 10.793 6.82649C8.88671 9.41695 8.03138 12.6393 8.40044 15.8403C8.40044 15.8403 8.75173 17.8764 9.47038 19.0306" stroke="#607AFE" stroke-width="2.31817" stroke-linecap="round" stroke-linejoin="round"/>
<path d="M35.8728 34.0359C37.4939 34.0348 39.0964 33.6885 40.5747 33.0198C42.0531 32.3512 43.3739 31.3753 44.4501 30.1564C45.5263 28.9376 46.3336 27.5034 46.8188 25.9482C47.304 24.3931 47.4561 22.7522 47.2651 21.1337C47.0741 19.5152 46.5444 17.9557 45.7108 16.5578C44.8771 15.16 43.7585 13.9555 42.4285 13.0237C41.0985 12.0918 39.5873 11.4538 37.9943 11.1515C36.4014 10.8491 34.7628 10.8895 33.1865 11.2697L30.1328 12.1054" stroke="#607AFE" stroke-width="2.31817" stroke-linecap="round" stroke-linejoin="round"/>
</svg>
