<svg width="50" height="35" viewBox="0 0 50 35" fill="none" xmlns="http://www.w3.org/2000/svg">
<path d="M41.3062 5.83398H12.717C10.4646 5.83398 8.63281 7.14211 8.63281 8.75065V16.0423H12.717V11.6673L25.7864 18.6673C26.14 18.8564 26.5699 18.9586 27.0116 18.9586C27.4534 18.9586 27.8833 18.8564 28.2369 18.6673L41.3062 11.6673V24.7923H24.9695V27.709H41.3062C43.5587 27.709 45.3904 26.4009 45.3904 24.7923V8.75065C45.3904 7.14211 43.5587 5.83398 41.3062 5.83398ZM27.0116 15.6777L14.077 8.75065H39.9462L27.0116 15.6777Z" fill="#FFB819"/>
<path d="M4.55078 17.5H18.8454V20.4167H4.55078V17.5ZM8.63496 21.875H20.8875V24.7917H8.63496V21.875ZM14.7612 26.25H22.9296V29.1667H14.7612V26.25Z" fill="white"/>
</svg>
