<svg width="25" height="25" viewBox="0 0 25 25" fill="none" xmlns="http://www.w3.org/2000/svg">
<path d="M7.40028 11.8594C7.15814 11.4237 6.77819 11.0808 6.32005 10.8844C5.86191 10.688 5.35154 10.6493 4.86903 10.7744C4.38653 10.8995 3.95921 11.1812 3.65416 11.5754C3.34911 11.9696 3.18359 12.454 3.18359 12.9524C3.18359 13.4509 3.34911 13.9352 3.65416 14.3294C3.95921 14.7236 4.38653 15.0054 4.86903 15.1305C5.35154 15.2555 5.86191 15.2168 6.32005 15.0204C6.77819 14.8241 7.15814 14.4811 7.40028 14.0454M7.40028 11.8594C7.58028 12.1834 7.68328 12.5554 7.68328 12.9524C7.68328 13.3494 7.58028 13.7224 7.40028 14.0454M7.40028 11.8594L16.9663 6.54543M7.40028 14.0454L16.9663 19.3594M16.9663 6.54543C17.1065 6.80957 17.298 7.0431 17.5296 7.23236C17.7612 7.42162 18.0281 7.56282 18.3149 7.64771C18.6017 7.73259 18.9025 7.75945 19.1997 7.72672C19.497 7.694 19.7848 7.60233 20.0462 7.45709C20.3076 7.31185 20.5375 7.11595 20.7223 6.88085C20.9072 6.64574 21.0433 6.37614 21.1227 6.08781C21.2021 5.79949 21.2233 5.49822 21.1849 5.20163C21.1466 4.90503 21.0495 4.61906 20.8993 4.36043C20.6033 3.85077 20.1193 3.47757 19.5511 3.32104C18.9829 3.16452 18.376 3.23717 17.8608 3.52339C17.3456 3.8096 16.9633 4.28652 16.796 4.85162C16.6288 5.41673 16.6899 6.02491 16.9663 6.54543ZM16.9663 19.3594C16.8227 19.6178 16.7315 19.9019 16.6978 20.1956C16.664 20.4892 16.6885 20.7866 16.7697 21.0708C16.8509 21.355 16.9873 21.6204 17.171 21.8519C17.3548 22.0834 17.5824 22.2764 17.8408 22.4199C18.0992 22.5635 18.3833 22.6547 18.6769 22.6884C18.9705 22.7222 19.2679 22.6977 19.5521 22.6165C19.8363 22.5353 20.1018 22.3989 20.3332 22.2152C20.5647 22.0314 20.7577 21.8038 20.9013 21.5454C21.1912 21.0236 21.2619 20.408 21.0979 19.8341C20.9339 19.2601 20.5486 18.7748 20.0268 18.4849C19.505 18.195 18.8894 18.1243 18.3154 18.2883C17.7415 18.4523 17.2562 18.8376 16.9663 19.3594Z" stroke="#BBBCC2" stroke-width="1.5" stroke-linecap="round" stroke-linejoin="round"/>
</svg>
