<svg width="17" height="16" viewBox="0 0 17 16" fill="none" xmlns="http://www.w3.org/2000/svg">
<path d="M2.75 4C2.75 3.86739 2.80268 3.74021 2.89645 3.64645C2.99021 3.55268 3.11739 3.5 3.25 3.5H14.25C14.3826 3.5 14.5098 3.55268 14.6036 3.64645C14.6973 3.74021 14.75 3.86739 14.75 4C14.75 4.13261 14.6973 4.25979 14.6036 4.35355C14.5098 4.44732 14.3826 4.5 14.25 4.5H3.25C3.11739 4.5 2.99021 4.44732 2.89645 4.35355C2.80268 4.25979 2.75 4.13261 2.75 4ZM3.25 8.5H7.25C7.38261 8.5 7.50979 8.44732 7.60355 8.35355C7.69732 8.25979 7.75 8.13261 7.75 8C7.75 7.86739 7.69732 7.74021 7.60355 7.64645C7.50979 7.55268 7.38261 7.5 7.25 7.5H3.25C3.11739 7.5 2.99021 7.55268 2.89645 7.64645C2.80268 7.74021 2.75 7.86739 2.75 8C2.75 8.13261 2.80268 8.25979 2.89645 8.35355C2.99021 8.44732 3.11739 8.5 3.25 8.5ZM8.25 11.5H3.25C3.11739 11.5 2.99021 11.5527 2.89645 11.6464C2.80268 11.7402 2.75 11.8674 2.75 12C2.75 12.1326 2.80268 12.2598 2.89645 12.3536C2.99021 12.4473 3.11739 12.5 3.25 12.5H8.25C8.38261 12.5 8.50979 12.4473 8.60355 12.3536C8.69732 12.2598 8.75 12.1326 8.75 12C8.75 11.8674 8.69732 11.7402 8.60355 11.6464C8.50979 11.5527 8.38261 11.5 8.25 11.5Z" fill="#080761"/>
<path d="M12.1445 12V7" stroke="#080761" stroke-linecap="round" stroke-linejoin="round"/>
<path d="M10.5469 8.29849L12.1436 6.70117L13.7409 8.29849" stroke="#080761" stroke-linecap="round" stroke-linejoin="round"/>
</svg>
