<svg width="60" height="60" viewBox="0 0 60 60" fill="none" xmlns="http://www.w3.org/2000/svg">
<path opacity="0.21" d="M37 0C49.7025 0 60 10.2975 60 23V37C60 49.7025 49.7025 60 37 60H23C10.2975 60 0 49.7025 0 37V23C0 10.2975 10.2975 0 23 0H37Z" fill="#8280FF"/>
<path opacity="0.587821" d="M38.001 24.667C40.2101 24.667 42.001 26.4579 42.001 28.667C42.0008 30.876 40.21 32.667 38.001 32.667C35.7921 32.6668 34.0012 30.8759 34.001 28.667C34.001 26.458 35.792 24.6672 38.001 24.667ZM26.001 18C28.9464 18 31.3348 20.3876 31.335 23.333C31.335 26.2785 28.9465 28.667 26.001 28.667C23.0556 28.6668 20.668 26.2784 20.668 23.333C20.6681 20.3877 23.0557 18.0002 26.001 18Z" fill="#8280FF"/>
<path d="M25.9775 31.334C32.3612 31.334 37.6062 34.3915 37.9971 40.9336C38.0126 41.1942 37.9967 42.001 36.9951 42.001H14.9697C14.6353 42.0006 13.9728 41.2792 14.001 40.9326C14.5179 34.5693 19.6825 31.3341 25.9775 31.334ZM37.4688 34.0029C42.0104 34.0527 45.7188 36.3475 45.998 41.2002C46.0093 41.3957 45.9978 42.001 45.2744 42.001H40.1338C40.1338 39.0003 39.1417 36.231 37.4688 34.0029Z" fill="#8280FF"/>
</svg>
