<svg width="60" height="60" viewBox="0 0 60 60" fill="none" xmlns="http://www.w3.org/2000/svg">
<path opacity="0.3" d="M37 0C49.7025 0 60 10.2975 60 23V37C60 49.7025 49.7025 60 37 60H23C10.2975 60 0 49.7025 0 37V23C0 10.2975 10.2975 0 23 0H37Z" fill="#FF9066"/>
<path opacity="0.78" fill-rule="evenodd" clip-rule="evenodd" d="M28.6299 23.8074C28.65 23.5469 28.8672 23.3457 29.1285 23.3457H29.5463C29.8032 23.3457 30.0183 23.5404 30.0438 23.796L30.6655 30.0124L35.0802 32.5351C35.236 32.6241 35.3321 32.7898 35.3321 32.9692V33.3577C35.3321 33.6874 35.0186 33.9269 34.7006 33.8401L28.3974 32.1211C28.1661 32.058 28.0121 31.8395 28.0305 31.6004L28.6299 23.8074Z" fill="#FF9066"/>
<path opacity="0.901274" d="M21.8525 15.1895C21.9479 14.7899 22.4575 14.6688 22.7217 14.9834L24.5205 17.1279C26.2036 16.4113 28.0552 16.0127 30 16.0127C37.7319 16.0127 43.9998 22.2809 44 30.0127C44 37.7447 37.732 44.0127 30 44.0127C22.268 44.0127 16 37.7447 16 30.0127C16 28.6997 16.1805 27.4287 16.5186 26.2236L19.0859 26.9443C18.8086 27.9332 18.667 28.9622 18.667 30.0127C18.667 36.2719 23.7408 41.3467 30 41.3467C36.2592 41.3467 41.333 36.2719 41.333 30.0127C41.3328 23.7536 36.2591 18.6797 30 18.6797C28.7318 18.6797 27.4968 18.8881 26.332 19.2861L28.1328 21.4326C28.3974 21.7479 28.1892 22.2296 27.7783 22.2529L20.7334 22.6523C20.3992 22.6712 20.1411 22.3627 20.2188 22.0371L21.8525 15.1895Z" fill="#FF9066"/>
</svg>
