<svg width="49" height="45" viewBox="0 0 49 45" fill="none" xmlns="http://www.w3.org/2000/svg">
<path d="M46.1693 37.5V40C46.1693 41.3261 45.63 42.5979 44.6702 43.5355C43.7103 44.4732 42.4085 45 41.0511 45H5.22367C3.86624 45 2.5644 44.4732 1.60455 43.5355C0.644706 42.5979 0.105469 41.3261 0.105469 40V5C0.105469 3.67392 0.644706 2.40215 1.60455 1.46447C2.5644 0.526784 3.86624 0 5.22367 0H41.0511C42.4085 0 43.7103 0.526784 44.6702 1.46447C45.63 2.40215 46.1693 3.67392 46.1693 5V7.5H23.1374C21.7799 7.5 20.4781 8.02678 19.5182 8.96447C18.5584 9.90215 18.0192 11.1739 18.0192 12.5V32.5C18.0192 33.8261 18.5584 35.0979 19.5182 36.0355C20.4781 36.9732 21.7799 37.5 23.1374 37.5H46.1693ZM23.1374 32.5H48.7284V12.5H23.1374V32.5ZM33.3738 26.25C32.3557 26.25 31.3793 25.8549 30.6594 25.1517C29.9395 24.4484 29.5351 23.4946 29.5351 22.5C29.5351 21.5054 29.9395 20.5516 30.6594 19.8483C31.3793 19.1451 32.3557 18.75 33.3738 18.75C34.3918 18.75 35.3682 19.1451 36.0881 19.8483C36.808 20.5516 37.2124 21.5054 37.2124 22.5C37.2124 23.4946 36.808 24.4484 36.0881 25.1517C35.3682 25.8549 34.3918 26.25 33.3738 26.25Z" fill="url(#paint0_linear_409_6023)"/>
<defs>
<linearGradient id="paint0_linear_409_6023" x1="24.4169" y1="0" x2="24.4169" y2="45" gradientUnits="userSpaceOnUse">
<stop offset="0.806269" stop-color="#617AFF"/>
<stop offset="0.806369" stop-color="#FFB819"/>
</linearGradient>
</defs>
</svg>
